<svg width="505" height="505" xmlns="http://www.w3.org/2000/svg" fill-rule="evenodd" clip-rule="evenodd" stroke-linejoin="round" stroke-miterlimit="1.4"><path fill="#F6DE1E" fill-rule="nonzero" d="M0 .5h504.7V505H0z"/><path d="M46.6 379.6h11.6v2c0 2.2.2 3.6.8 4.5.6 1 1.5 1.3 3 1.3 1.3 0 2.3-.3 3-1 .5-.5.7-1.6.7-3 0-2-.3-3.6-1-4.7-.5-1-2-2.4-4-4l-6.7-5c-1.3-1-2.3-2-3-2.7l-2.6-2.7c-.5-.7-1-1.4-1.2-2-.3-.7-.5-1.5-.6-2.5l-.2-4c0-4.8 1.3-8.2 3.8-10.2 2.6-2 6.7-3 12.6-3 5 0 8.8 1 11 3.2 2.4 2 3.5 5.6 3.5 10.4v3H65.4v-1.7c0-2-.3-3.6-.8-4.3-.4-.8-1.3-1.2-2.6-1.2-1.2 0-2.2.3-2.8 1-.5.6-.8 1.7-.8 3.2 0 2.5 1.5 4.8 4.5 7l1 .8c2.7 2 5 3.6 6.6 5 1.6 1.3 2.7 2.3 3.2 3 1 1 2 2.2 2.4 3 .5 1 1 2 1.2 3 0 .2.2.8.2 1.7v3.5c0 5-1 8.6-3.3 10.6s-6.3 3-12 3-9.7-1-12-3c-2.6-2.2-4-5.6-4-10.3 0-.6 0-1.6.2-3v-1zM83 395.8L93 343.6h16l10.4 52.2h-12.4l-1.3-9h-9.3l-1.4 9H83zm15-18.6h6.5l-3.2-24.7-3.3 24.7zm58.7 6c0 5.2-1 8.7-3.4 10.7-2.2 2-6.3 3-12.2 3-5.8 0-9.8-1-12-3-2.3-2-3.5-5.6-3.5-10.8v-27c0-5.2 1.2-8.7 3.4-10.7s6.2-3 12-3c6 0 10 1 12.3 3 2.3 2 3.4 5.6 3.4 10.7v6h-12v-5.8c0-1.7 0-3-.7-3.6-.6-.7-1.6-1-3-1-1.2 0-2 .3-2.7 1-.6.7-1 1.8-1 3.5v27c0 1.6.4 2.7 1 3.4.5.7 1.4 1 2.8 1 1.5 0 2.4-.3 3-1 .6-.8 1-2 1-4v-6h11.8v6.6zm21-18.8h2c1.7 0 3-.2 3.8-.8 1-.6 1.3-1.5 1.3-2.7V356c0-1.2-.4-2-1.3-2.7-.8-.6-2.2-.8-4-.8h-1.8v11.7zm8 29v-16c0-1.5-.5-2.5-1.4-3.2-1-.7-2.3-1-4.2-1h-2.3V396h-11.5v-52.3h16.2c4.4 0 8 1 10.4 2.6s3.7 4 3.7 7v7.7c0 2.3-.7 4-2.2 5.4-1.4 1.5-3.5 2.2-6 2.4 3 .2 5.3 1 6.8 2.6 1.6 1.5 2.3 3.7 2.3 6.7v15.7c0 .4.3.8.6 1.2 0 .4.5.8 1 1.2H187c-.6-.3-1-.6-1.2-1-.3-.4-.4-1-.4-1.5zm17.6 2.4l10.3-52.2h16l10.4 52.2h-12.4l-1.4-9H217l-1.3 9h-12.4zm15-18.6h6.5l-3.2-24.7-3.3 24.7zm58.8 18.6h-11.7l-8.2-44.4.6 44.4h-11v-52.2h18.7l1.8 11.7.6 3 3.7 25.6c.4-4 1-8.3 1.7-13.2l2.3-15.5 1.8-11.7H296V396h-11l.5-44.6L277 396zm54.8-52.2v9.5h-13.5V364h13v9.5h-13v13h13.5v9.6h-25.2v-52.4h25.2zm33.2 52.2c-2.2-7.2-4.4-14.3-6.4-21.4-2-7-4-14-5.6-21l.3 42.4h-10.8v-52.2h16.2c2.4 8 4.7 15.4 6.7 22.5 2 7.2 3.8 13.8 5.3 20l-.3-42.5h11v52.3H365zm33 0v-42.6h-9v-9.6h29.6v9.6h-8.8v42.6h-12zm39.3-39.4V383c0 1.6.3 2.8 1 3.6.5.7 1.4 1 2.7 1 1.4 0 2.5-.2 3-1 .6-.6 1-2 1-4v-26c0-2-.4-3.2-1-4-.5-.6-1.5-1-3-1-1.2 0-2.2.5-2.8 1.2-.6.7-.8 2-.8 3.6zm19.3 26.8c0 5.2-1 8.8-3.3 10.7-2.3 2-6.3 3-12.2 3-5.8 0-10-1-12-3-2.4-2-3.5-5.6-3.5-10.8v-27c0-5.2 1-8.7 3.4-10.7 2-2 6.2-3 12-3 6 0 10 1 12.3 3 2.2 2 3.3 5.5 3.3 10.7v27z" fill="#513F26"/><g fill-rule="nonzero"><path d="M225 279.8c-.5 0-.7 1-1 1.3-1 1-2.8-.5-3 1-.4 1-2 1.2-2.6 1 0-2-1.7-.7-2.7 0-.8 1-2.3-.3-3.2 0-.7-.4-1.7-.2-1.4-1 1-.7 0-2.3-.6-1.3-.8.2-.3.7-1 .7-1 1 0-1.7-1.4-1-.4 1.4-2.3 1.6-3.7 1.5-1 0-2 .6-3.3.4h-.2l-5.2.3-6 1.3-6.5 1.4c-.4 0-.7 0-1.4.3-.3.2-40.7 9-40.8 9l-1.5-.5h-.5l-.7-.2-1.2-.3-1-.7-.4-.4h-.8l-.8.5H132l-1.4.5H129l-.4.2-.4-.2V292h-.7l-.6.8-1 1h-.8l-.6-.4-.5-.4h-.4l-.2.3-1.6 1.6h-.2l-.6.2-.7-.2-.4-.3-.8.7-.6 1-.5.5-1.4.3-.5-.2-.4-.6-1.5.2-.3.4h-.4l-1-1-.3-.4H111l-.8.3-1.2-.2-.2.7.2.3.4 1.2-.4.5-1 .4-.3.4-.4.4-.6.2-1 .2-.8.3-.7.2-1.4.5h-1l-.4-.2-.7.3-1 .2-.7-.6-1.2-1-.5.5L96 302H95l-.2-1-.6-.6-.5.3-.3.6h-.4l-.3-.8v-.6H92l-.6.4-.5.8-.4.2-.4-.4-.4-1v-.6H89l-.2.7v.5l-.2.5-.2 1.3-.5.4-.5-.2-.2-.4-.6-1H86v1l-.7 1-2 2-1.5.4-.7-1.8H81l-.2.4-.5 1.5h-.6l-1 .2-.6.4h-.4l-.2-.3-.4-.7-.5.6-.3 1-1.5 1H73l-3.2 2-1-.3H68l-2 1-1 .5-1.7.4H62l-1.4.2-1.6.5-3 .5h-.4c-1 .8-2.2 1.3-3.4 1.6-.4 0-1 .3-1.8.6-.5.2-.5.2-.6.5 0 .4-.4.8-.3 1 .8.7 2.8 1 4.4 1h1.4c5.7 0 10.4-.6 15.4.2 1 .3 2.2.4 2.6.3h11.1c2.5 0 4 0 4.2-.2 2 1 4.2.8 6.3 1l4 .2h1.7c7.5-.4 14.5-1.2 22-1.6 1.2 0 2.5-.3 3.7-.4h5c.4-.3 3-.3 4-.2 7.4.4 14 .3 21.4 1l2 .2c6 0 11.5.5 17.7.7h3.8l4.4.4h.7c4.4.7 9 .7 13.5 1.4.2.2 2 .2 2 0h2.3c.8 0 1.6-.5 2.2 0 .2-.2 1.2-.3 1.4-.2 1.7-.3 3.6 0 5.4 0l5.5-.3c1 0 2.2-.3 3.4-.3h1.6c.4-.2 1-.2 1.3-.2 2.4 0 4.7-.6 7-.4 2-.3 3.6-.3 5.4-.5 2 0 4.3-.5 6.5-.5 3.5 0 7-.4 10.6-.7 2.7 0 6.2-.5 8-.5 4.7 0 10.4-1 14.3-1h3.4c1.6 0 3-.3 4.8-.3 3-.4 5.8-.5 9-.6h1.5c1-.2 1.6-.4 2.5-.3 2.8-.2 5.8-.2 8.6-.2h2.2c3.4.2 7.3 0 10.6 0 5 .4 10.8.4 16 .5 6 .2 12 .2 17.7 1 11 .6 19 0 28.4.8 1.2.3 2.4.4 3.6.3h3.2c5.7 0 13-.3 16-.3h3.7c9.6-.5 16.4-1.8 26-1.5 3.8-.5 7.5.4 11.3.3h2.7c.8 0 1.7 0 2.7-.3 1-.4 1.6-1.3 1.5-2.6 0-.8-.2-1-.7-1.2l-2-1-1.4-.5-.8-.7c0-.2-.4-.3-.7-.4l-2-1.5c-.2-.2-.3-.3-.7-.3-.7 0-1.4-.2-1.5-.4h-.4c-.2 0-.3 0-.4-.2-.3-.4-.4-1-.8-1h-.4c0-.5-.2-1-.6-1.2l-1-.7c0-.2-.6-.3-1-.3-.2 0-.3 0-.5-.4l-.3-.8c0-.6-.2-.8-.5-1-.5 0-.6-.4-1-.2l-1.3.5h-2l-1.2-1.5s-.3 0-.5-.3c-.3-.3-.4-.4-.7-.4-.5-.4-.8-.7-1-1.3 0-.2-1.2-.2-1.2 0s-.6.3-1 0v-.3c-.2 0-.3-.2-.5-.3l-.6-.2c-.6 0-1 0-1.3.2l-.6.3c0 .2-.2.3-.3.5 0 0-.6 0-.7-.2-.2 0-.4-.2-.5-.5h-.7c-.3.3-.3.3-.5 0v-.6c0-.5 0-1.2-.3-1.3-.2-.2-.8.2-.8.4-.6-.3-1-.8-1-2.2l-.2-.3c0-.4-.4-.3-.6 0l-1 1.2c0 .2-.2.3-.5.2-.2 0-.2-.2-.3-.5 0-.5 0-.6-.2-.7h-.6c-.5.8-1 1.8-2 1.3 0-.4 0-1.2.3-1.7l.2-.5-.2-.5c-.2-.3-.3-1-.7-1-.4 0-1 .4-1 .8-.3.2-.3.6-.7.6 0 0-.4 0-.7-.2 0-.2-.3-.3-.3-.3-.2 0-.7.3-.8.7 0 .2-.3.3-.4.3l-.6.5c-.2 0-.4-.3-.5-.6-.2-.3-.2-.7 0-.8 0-.2.2-.6 0-.7-.2-.4-.2-.8-.7-1-.2 0-.3-.2-.4-.8v-.7c0-.7-.2-1.3-1-1.7l-.4 1c-.2 0-.3.4-.6.5-.4.4-.7.2-1-.5-.2-.6-.3-.8-.6-.8-.2 0-.4 0-.5.3v2c0 .7 0 1.4-.5 2-.3.2-1-.3-1-.6 0-.2 0-.3-.2-.4-.4-.5-.6-1-1.2-1-.4 0-.7-.2-.8-.5 0-.2-.2-.8 0-.8 0-.4.2-.7 0-1 0-.2 0-.4-.2-.4-.3.3-.8.5-1 1-.5 0-.7.4-1.3.3h-.7l-.4-.5c-.6-.8-.8-.7-.8.5-.3.6-.6 1-1.2.6 0-.3 0-.3-.2-.3 0 0-.3 0-.5.2h-.9l-.3.2-16-1.2-16-1-.2-.3c0-.3-.4-.4-.5 0h-.3c-.2 0-.3 0-.7-.6l-1-.2h-1v-.2l-.3-.2-.3-.3-1 .5-.3.3h-.4l-.6-.5-.7-.5-.6.4h-1l-.7-1-1-.3v.2l-.5.5-.3.2-.8-.6-1 .3-1-.4-1-1H343l-.7-.3-.4-.7-1.3 1-.5-.2h-.6l-.6.2-.7 1.4-2.5.2-.2-1.4v-.7l-.5.4h-2.6l-.3-1-.2-.7-.6-.2-1 1.5-.4.2h-.4l-.3-.5-.4-.4-.8.5-.8.8-.3.4-.8.2-.3-.4v-.7l-.2-1h-.5l-1 .7-1.5 1.2v-.8l-.5-1-.6.4-.4 1-.8-.5-.6-.7-.4-.2-.3.2-1.5 1.3-1.4.8-.4.2s-20.6 2.8-32.3 3c-11.8 0-10.5-2.4-10.6-2.4v-.6-.8l-.5-.8v-.2l-.2-.2h-1c-2.2-.2-3 1.3-4.5 1.7h-.4c0 .2 0 .4-.2.5l-.3.4-23.6-1h-2v-.2c-1 .3-1.5-1.3-2.5-.8-1 .7-1.5-.4-1.7-1.2-.7.3-2 1.4-3 1-1-1-2.3.7-3.5.3-.3-.2-1-1.6-1.3-1-1.2 1-.3-1.7-1.6-1.5 0 .7-1 1.2-1 .2l-.6-.4z" fill="#584528"/><path d="M225.2 283.7c-2.5.4-4.3 3-7 2.2-2.3-.7-4.5.8-7-.4-2.4-1.6-5-1.2-7.7-.5-15.8 1.2-31 6.2-46.6 9.3-6 1-12 3-18 3-2.7-1.2-6-2-8.8-.8-4-.8-8 .6-11.3 3-2.3 2-5.6-1-7.5.3-2.8 3.3-7.7 4.3-11.8 4.3-1.7-.6-3.2 1.8-5 .7-3-1.6-5.6.3-8.3 1-3 3.4-8 2-11.7 4.5-2.3 1.3-4.4 2.3-7 2.4-3.5 1-2.7 1.3.7 1.2 9 1.4 18.4-.2 27.5 1.4 15.5.6 31-3 46.7-1.6 18.2 1 36.4 1.2 54.6 3.2 27.8 0 55.6-3.6 83.4-4.8 27-2.5 54.4-.8 81.5.5 15.3.2 30.7 1.5 46 .2 12.7-1 25.4-2 38-1-2.6-3-7-2.6-9-6-2-.3-2.5-3-4.6-2-3-.3-4.2-4-7.4-3.8-1.4-.3-3.4 1-5-.3-2.2-.3-2.6-4-5-2.5-2 1-4.3-.2-5-1.6-.8 2.2-2.4 1.6-3.8.2-1.3-1-1.2-4.6-2.5-2-2 2.2-4.3 0-5.7-1.6-2.5-2.5-6.2.7-9.3-.4-11.4-1.3-23.3-.7-34.4-3.3-3-.2-5.8-1-8.8-1.2-2-1-4.7-2.2-6.6 0-3.7 2-6.2-3.3-10-2-2.3 1-4.6.6-6.8 1.7-2 .2-2.7-3.3-4.3-1-13 2.8-26.7 3.6-40 3.6-3.3 0-7.3-1.7-8.2-4.5-2 2-4.8 3-7.7 2.3-8-.3-16.3-1.4-24.6-.8-.2-2-3.5-1-5.2-1.5-2.4 1-4.7-.2-6.8-1.3z" fill="#008542"/><path d="M199.4 298.3v-.3c.2 0 .2-.2.2-.2s.2 0 .3-.2c0 0 .2 0 .2-.2 0-.3 0-.4.2 0h.3c.2 0 .3 0 .4-.2.2 0 .2-.2 0-.4v-.3c-.2 0-.2 0-.2-.2h.5c.6 0 .6 0 .7-.5v-.2l.7.3h.2c.2 0 .3 0 .3-.5 0-.3 0-.4.3-.3.3 0 .5 0 .6-.4v-.3h.3c0 .2.3.3.5.3s.2 0 .2.2c0 0 0 .2.2.2.3 0 .3.2 0 .3v.4s.3 0 .5-.3c0-.2.3-.3.5-.2h.3v.3l.3.2h.5c.3-.2.3-.2.3-.5v-.3h.5l.4-.3h.3l.3.8v.5h.4c.7 0 1.2.2 1.3.3h.5c.6 0 .6 0 .8-.5h.2s.2.2 0 .3c0 .2 0 .3.2.3l.8.3h.2l.3.4c0 .2-.4.5-.6.5h-.2s-.3 0-.2-.3c0-.3 0-.4-.3-.2H212l-.2.2h-.2c0 .2 0 .2-.5.2h-.7c-.4.2-.6 0-.5-.2 0 0 0-.2 0 0h-.4-.3c0 .2-.4.2-.4 0H207.4c0 .3 0 .3-.3.4h-.3c0-.2-.3-.2-.6-.2s-.5 0-.6-.2h-.3-.5-.3-.3l-.4.2h-1c-.6 0-1 0-1.2.2h-.5-.3c-.2.2-.3.2-.7.2h-.6zm155.7 2.2v-.2h-1.8c-.2.2-.2.2-.2 0 0 0-.5-.2-.7 0h-.2c0-.2-.2-.3-.5-.3h-.2-1.1c-.2-.2-.3-.2-.5 0h-.5-.3-3.1c-.3 0-.7 0-1-.2h-2.5c-.6.2-1 0-1 0 0-.2 0-.3-.4-.3h.2c.2 0 .3-.2.4-.3h.8c.8 0 1 0 1-.4 0-.2 0-.3-.6-.3h-.4l.4-.2h.8c0-.2.5-.3.8-.4.3 0 .5-.2.5-.3h-.3c-.2 0-.2 0-.2-.2v-.2c-.3 0-.4 0-.2-.2 0-.3.5-.4 1-.4h.4v.4c0 .5.2.8.5.8.2 0 .4 0 .5-.2l.3-.2h.6c.4 0 .4 0 .5-.2l.2-.3v-.5c0-.3 0-.3.2-.4h.5c0 .2 0 .3.2.5l.3.7c0 .4 0 .5.4.5h.4c.2.2.3.3.5.3s.2 0 .2-.2c0-.3.2-.3.3 0l.5.4c.5.2.5.2.6 0v-.2s-.2-.3-.4-.3v-.2c0-.2.3 0 .6.2l.4.3c.4 0 .6.7.4 1 0 0-.2 0-.2.2s0 .2.3.2h.4c.2.2.3.2.5.2s.2 0 .2-.2 0-.3.3-.4c.6-.2.7 0 .2.3-.3.3-.3.4 0 .5h.5c0-.2.2-.3.3-.2v.4c-.2 0-.2 0 0 .2.2 0 .3.2.2.4h-.3c-.2-.3-.6-.2-.6 0 0 0 0 .2-.2 0M254 304c0-.2-1-.3-1.7-.2h-.3c0-.3 0-.4-.3-.3h-.2c0-.2 0-.2.2-.2 0 0 .2 0 .2-.2.3 0 .6 0 .7-.3 0 0 0-.3-.2-.3s0 0 .4-.4c.2 0 .4-.3.5-.4v-.5-.7c.2-.2.3-.3.4-.2v.3c.2.2.2.2.4 0 .3 0 .5 0 .2.4h-.2.2v.3l.2.3s.2 0 .3.2l.3.3h.7c0-.2.2-.2.4-.3l.4-.4.4-.2c.4 0 .5 0 .4-.2v-.2h.2c0 .2 0 .2.4 0 .4 0 .6-.2.5-.4 0-.3.3-.2 1 0h.5c.2 0 .3-.2.3-.2l.2-.2c0-.3.3-.3.2 0v.4l.2.2v.2c.3 0 .3.3 0 .3 0 0-.2 0-.2.6v.5h.3c0-.2.2-.3.6-.4 0 0 .3 0 .3-.2v-.2c.3 0 .3-.2.2-.3v-.5h.2c0 .4.5.4.5.2s0 0 .2 0l.3.3c.3.2.3.2.2.4l-.4.3c-.2 0-.2.3 0 .8 0 .2 0 .3.2.3h.4l.7.2h.4c0-.3.4-.3.7-.2h.5c.3-.4.4-.4.5-.2v.3c-.4.3-.3.4 0 .6.4 0 .6.3.4.3h-.2c0 .2-.3.2-.5.2h-1c-.4 0-.6 0-.7-.2h-.2-.2-.5c0 .3-.2.6-.4.5v-.3-.2h-.3v.2l-.4.2c-.3.2-.5.2-.5 0 0 0-.2-.2-.5-.2h-.2-.3l-.3-.2h-.6v.3c0 .2-.3.2-.4 0 0-.2-.4-.2-.4 0h-1.5l-2.4.2H254c0 .2-.3.2-.3 0m73.5.7v-.2c0-.2-3.2-.2-3.3 0 0 0-.5 0-.6-.2l-1.4-.2c-.5 0-.6 0-.8.2h-.6l-2-.3c-.2 0-.4.2-.4.3 0 0-.3.2-.4 0 .3-.3.3-.4 0-.3h-.2c-.2-.2-.3-.2-.7-.2h-2.3-2-.3c-.2 0-.3 0-.3.2s0 .3-.2.2v-.3-.7c-.2-.2-.2-.4 0-.4l1.2-.4h.5c.4 0 .4 0 .5-.3 0-.3.2-.3.2 0h.4c.5.2.7.2.7 0 0-.4-.3-.8-.7-.8 0-.2-.3-.4-.5-.4 0-.2 0-.2.6-.3.7 0 .7 0 .8.2h.4c0-.3.2-.3.3-.2.3 0 .6 0 .7-.3.2-.2.2-.3.4-.3.3 0 .5 0 .7-.2.4-.2.4-.3.4-.4v-.3h.2c.2 0 .2 0 .4 1 0 .4.2.6.5.5.2 0 .2-.3 0-.3v-.2h.4c0 .2.3.2.7.2h.5c0 .3.2.3.5.2.2 0 .2 0 .2-.3v-.6h.2c0 .2.4.5.5.5h.2v.6h.7c0-.3.3-.3.2 0l.3.2h.6c.2 0 .2-.2.2-.2 0-.2 0-.2.5 0h.7v.2s-.2 0-.3.2v.3c-.2 0-.2.2-.3.3 0 .2 0 .3.3.4.4.2.6 0 .7-.2 0 0 0-.2.3-.2 0 0 .3 0 .5-.2.4-.2.5-.3.6 0v.2c-.4.2-.4.3 0 .3.3 0 .3 0 0 0s-.4.2-.5.3c-.2.2-.2.5-.2.6l.8.2h1.2c0-.2.3-.3.3-.3.2 0 .3 0 .2.2 0 .2 0 .3.6.2.4 0 .4 0 .4.2s0 0-.4 0l-.3.2-.8.4c-.3.2-.7.3-.7.2zm-37.6.5c-.2 0-.4 0-.5-.2h-.3-.8c0-.2-1.6 0-1.7 0h-.4-.3c0 .2 0 .2-.2 0h-.5c-.4.2-.6 0-.6 0 .3 0 .3-.2.2-.4-.3-.2-.4-.4-.2-.4h.2s.2 0 .2.2c0 0 0 .2.3.2.4 0 .5 0 .4-.3v-.3h.4c.2-.2.8-.3.8-.2l.7.2c.2 0 .3 0 .3-.3l.3-.3c.2 0 .2-.2 0-.3 0-.2.2-.2.8 0h.8v-.3c-.2 0 0-.2 0-.2 0-.2.3 0 .3.2s0 .3.3.3h1.9l.2-.3h.5l.2.4h.3c.2 0 .4 0 .4-.3v-.2c.2-.2.2-.2.5 0l.4.3c.2.2.5.2.6 0h.9c0-.2.8-.3 1-.3 0 0 0 .2-.2.2v.3c0 .2.2.2.4.2s.3 0 .3-.2.2-.3.3 0h.2c.2 0 .2 0 .2.2 0 .3.4.4 1 0h.4l.2.3h-.3c-.5 0-.8.2-.8.4l-.3.4-.4.4H298l-.2.3-.2-.2-.2-.2h-.3-.8c0 .2 0 .2-.4.2h-.4-.2-2.1-.2l-.3.2h-.4s-.3 0-.5.2h-.6c-.2-.2-.3-.2-.4 0h-.7zm103.2 1.2v-.6h-.7c0-.2 0 0-.5 0h-3.3-.3c-.2 0-.5 0-.5.3h-.4v-.3h-1-.9v.3h-.3-.3c0-.2 0-.2-.4-.2h-.7c-.4-.2-.4-.2-.6 0h-.6c0-.2 0-.3-.2-.3h-.4c0-.3.2-.4.6-.3h.5c0-.2.3-.3.5-.4h1.1v-.2c0-.2.2-.5.5-.6.5-.2.6 0 .4.3h.2c.2 0 .2-.2.3-.3 0-.3.2-.3.2 0 .2 0 0-.4 0-.4s-.2-.3 0-.5v-.5-.4c.2 0 .3 0 .3.5 0 .2 0 .4.2.6l.4.4s.2 0 .2-.2c.2 0 .2-.2.2-.3v-.2h.2l-.3-.2c-.3 0-.3 0 0-.2 0 0 0-.2.2-.2 0-.2 0-.2.3-.2h.5v.3c0 .3 0 .4.6.4.2 0 .4 0 .5-.2h.6c.3 0 .3 0 .3-.3l-.2-.2v-.3h.3v-.4c-.4-.4-.4-.5 0-.4h.2c0 .2 0 .3.3.5.2 0 .3.2.3.4 0 0 0 .2.2.3h.2c0 .3.2.2.4 0 .3-.4.6-.6.8-.6.2 0 .2 0 .3.2 0 0 0 .2-.2.3v.4s0 .2.3.3h.4v-.2c.2 0 .2-.2.2-.2h.3c.2.3.3.3.3 0 0-.2 0-.2.2-.2 0 .2.2.3.3.3V303.4c.3 0 .3 0 .3.3 0 .2 0 .2.3.3h.6l.2-.2 1.2.5.5.3s.2 0 .2.2 0 .2.2.2v.3c0 .3 0 .4.4.3.3 0 .3 0 .3-.2s.3-.3.4 0c.2.2 0 .7 0 1h-1.2c-.5-.2-.7-.3-1 0h-.3v-.2h-.4s-.2 0-.3.2H395c0-.2 0-.2 0 0h-.9c0 .2-.2.2-.2 0h-.4c0 .3-.3.4-.4.2zm-158.2.5l-.4-.2h-.4l-.2.3h-.2l-.2-.3-.2.2h-.3H231.3c-.6 0-.7 0-.6-.2h-.8-.4s-1.8-.2-2.2 0c0 0-.3 0-.3-.2h-1.3c-1.2 0-1.4 0-1.5-.3h-.3c-.2.3-.4.3-.4 0h-.5c-.5 0-.5 0-.6.3 0 .2-.3.2-.3 0v-.2l-.8.2h-.6-.2s-.3-.2-.8-.2c-.7 0-1 0-1.2.3l-.2.2c-.2 0 0-.2 0-.4.2 0 .2-.2.2-.4s0-.2.2-.2h.2c0-.3.2-.6.3-.6.3 0 .3 0 .2.3-.2.3 0 .4 0 .4.5 0 .6 0 .6-.6v-.5h.5c.2 0 .3 0 .3-.2h.6v.3l.3.4h.5l.5-.4c0-.2 0-.4-.2-.6-.2-.2-.2-.3-.2-.6 0-.5.2-.5.6-.2.2.3.2.3.4.2.2 0 .3 0 .2.2v.7c.2 0 .6 0 .8-.2l.3-.2.2-.3v-.3c.2 0 .2 0 .2-.3v-.3h.3c0-.2 0-.2.2 0h.8v-2h.4c.2 0 .4 0 .5-.2.2 0 .2.5 0 1 0 .3 0 .8.3.8.2 0 .4-.4.5-1v-.2c.2 0 .3 0 .2.3 0 .3 0 .4.2.6.3.2.5.7.3 1 0 0-.2.3 0 .5 0 .4 0 .5.3.4.2 0 .3-.2.3-.6v-.4h.4c.2 0 .2 0 .3.2l.3.4v.2c0 .2.3.3.5.3.3 0 .5-.2.5-.4s0-.2.4-.3h.8l.4.2c.3 0 .6 0 .5.2h.3s.4 0 .3-.3c0-.2 0-.3.2-.2s0 0 .2-.2c0 0 0-.2.3-.2.2 0 .2 0 .3.2 0 .2.5.4 1 .3h.2l-.5.3c-.3 0-.5 0-.6.2h-.2v.9h.4c0-.2.3-.3.3 0h.4c0 .4.3.7.7.7 0 0 .3 0 .4.2h.3s.4-.2.5 0c0 .2 0 .3.3.2.3-.2.4 0 .2.3l-.2.3c0 .2-.2.2-1 .6-.3.2-.2.2-.8-.2h-.3-.5v.3h-.3M120 307c0-.2-.3-.2-.5-.2-.4 0-1-.6-.6-.8h.5c.3 0 .4-.2.5-.3v-.3s0-.2-.2-.2h-.3c0-.2 0-.2-.2-.2h-.2c0-.2-.3-.3-.5-.2h-.2c0-.2 0-.3.2-.3h.4c.3-.2 1.5 0 1.7.2h.9c0-.2.3-.3.5-.4h2.2s0-.3.2-.3l.2-.3s0-.3.2-.5l.2-.4v-.2c.2 0 .5 0 .6.2.3.3 1 0 1.4-.2 0 0 .2-.2.2 0 .2 0 0 .2-.3.3-.3 0-.5.3-.4.4 0 0 .8 0 1-.2h.5c0 .2.5.4.7.4v-.3c-.2-.2-.2-.4 0-.4h.4c.2 0 .3 0 .4.4 0 .2 0 .3.3.3s.5 0 .8.2h.3s.2 0 .2.2h.3l.3.2h.3v.3l1 .4h.3c.2-.4.4-.4.4 0v.2h.8c.7 0 .7 0 .8.2v.2c-.2 0-.3.2-.3.3-.2 0-.3 0-.4.2 0 .2-.2.2-.6 0h-.6-1.6v.2h-.4s0-.2-.3-.2h-.4c-.2-.2-.6-.2-.7 0h-1.3c-.2-.2-.3-.2-.4 0h-.4c-.2-.2-.3-.2-.4 0-.2 0-.2 0-.3-.2s0 0-.2 0h-1l-1 .2h-.8c-.3 0-.3 0-.3.2h-.4c-.3-.2-.5-.2-.8 0h-.8-.7c-.5-.2-.5 0-.7 0-.2.2 0 .3.3.3 0 0 .2 0 .2.2h-1zm55.5.5v-.2c.2-.3 0-.4 0-.4h-.4c0 .2-.5 0-.5-.3 0 0 .6-.3 1-.3.5 0 .5 0 .6-.2v-.6c-.3 0-.3 0-.3-.2.2-.3.3-.4.5-.4s.2 0 .2.4 0 .3.2.4c.3.2.6 0 .3-.3v-.2h.4s.2 0 .3-.3c0 0 0-.2.2-.2s.3-.2.2-.4v-.3h.4c0-.3.3-.2.6 0 0 .3.3.4.3.4.2 0 .5 0 .7-.2l.3-.2s0 .2.2.3c0 0 0 .2.3.2.2 0 .2 0 .3-.4 0 0 0-.2.2-.3l.2-.6c0-.6 0-.6.4-.4.2 0 .3 0 .3.5v1.1c.2.2.4 0 .6-.3l.4-.4c.2 0 .6 0 .8.2v.2c-.3 0-.3.2-.3.4 0 .4 0 .4.2.4l1.2-.4c.2-.2.4-.2.4 0v.2c.2 0 .3.2.3.3 0 .2 0 .3.4.3h.2l.4.3.3.4c0 .2.2.3.8.3h.4l-.2.4c0 .2-.2.4-.4.4l-.4.2h-.4l-.2.2c0 .2-.2 0-.3 0v-.3l-.3.3h-.2c0-.2 0-.2-1-.2-1.3 0-1.8 0-2.7.2-.7.2-1.2.2-2.5.2h-2.7c0 .2-.2.2-.3 0h-.7c-.4.2-.5.3-.6.5 0 0-.3.2-.3 0m243 .8c-.2 0-.2-.2-.2-.2h-1.8-.2-.2c0 .3-.2.3-.4 0h-.4s-.2 0-.2-.2h-.2c-.3-.2-1 0-1 0h-.8c0 .3-.3.3-.6 0-.2 0-.2 0 0-.3 0 0 0-.2.2-.3.3-.2.6-.5.5-.6l.2-.4v-.5s0-.2.2-.2c0 0 .3.2.3.5 0 .2 0 .2.2.3h1c0-.3 0-.3.3-.3.4 0 .7 0 .7.2l.2.2h.6c.3-.2.3-.2.3-.4v-.2h.5c.3 0 .4 0 .4.3 0 .2 0 .3.3.3.2.2.2.2.6 0 .4-.2.4-.3.4-.5 0 0 .6-.3.6 0 .2.3.4.4.6.3.5.3.5.3.4.5v.5s.4.4 1 .6l-.2.3c-.3.2-.7.4-1 .3h-.3c-.3 0-.4-.2-.4-.3 0 0 0-.2-.3-.2h-1s0 .2-.2.2l-.2.3h-.2m-315.8.2c0-.2-.5-.2-.7 0 0 0-.7 0-.8-.2l-.3-.2h-.3v-.5-1.1h.9c.3.2.3 0 .3-.2 0-.3 0-.3.4-.3.3 0 .3 0 .5.3.2.5.4.6.7.3.2-.2.2-.2.6-.2.4 0 .5 0 .6-.2 0 0 .2 0 .3-.2v-.4c0-.2 0-.3.2-.3s0 0 .2.2c0 .2 0 .3.2.4h.4c0 .3 0 .3.4.3s.4 0 .2-.2c-.2 0 0 0 .3-.3h.2v.3c0 .2 0 .2.3.4l.4.3v-.2c0-.2.2-.3.3 0l-.3.2.2.2c.2 0 .3.2.3.2h-.4c-.3 0-.3.2-.3.3 0 .2 0 .2-.3.3 0 0-.3 0-.3.2h-.3-.3-1.3-.3s-.3.2-.7.2h-.8c0 .2-.2.3-.2.3h-.2zm38 .5v-.2c-.2 0-.3 0-.2-.2 0 0 0-.2.3-.2h.5l.3-.2v-.8-1h.4v.4c0 .2 0 .3.5.4.7.3.8.3 1 0 .2 0 .3-.3.4-.4l.3-.3c.2-.3.5 0 .2.2v.5c.2 0 .3 0 .5.2 0 0 .3.2.4 0h.2v-.4-.5c.2 0 .2-.5 0-.7 0 0 0-.2.3-.2s.4 0 .4-.3c0-.6.4 0 .5.6v.2h1.2c0-.3.4-.4.8-.3.3 0 .6 0 .6.2h-.8-.3v.4h.6c.8 0 1 .2 1 .5s0 .3.3.4c.2 0 .2 0 .2-.2 0-.4.4-.3.4 0 0 .2 0 .3.2.4.3 0 .4.3.2.5s-.3.4-.2.6c0 .2-.3 0-.3 0l-.4-.2h-.4c0-.2-.2-.2-.2 0h-1-.4s-.4 0-.6.2h-1.6c-.2 0-.4 0-.4.2l-.3.2c0-.3 0-.3-.7-.3-.6 0-.8 0-.8.2v.2s-.2 0-.2-.2v-.2H142.6h-.7c-.5 0-.6 0-.7.2-.3.2-.4.3-.4 0z" fill="#54472E"/></g><path d="M132.5 264.7l38.6-23.4c7.5 13.2 14.3 24.4 30.5 24.4 15.6 0 25.4-6 25.4-29.8V75h47.3v161.6c0 49-28.8 71.4-70.7 71.4-38 0-60-19.6-71-43.3zm167.5-5l38.6-22.4c10 16.6 23.3 28.7 46.6 28.7 19.7 0 32.2-9.8 32.2-23.3 0-16.2-13-22-34.5-31.5l-12-5c-34-14.6-56.8-33-56.8-71.4 0-35.6 27-62.6 69.4-62.6 30 0 51.7 10.5 67.3 38l-37 23.5c-8-14.5-17-20.2-30.4-20.2-14 0-22.7 8.8-22.7 20.3 0 14.2 8.7 20 29 28.7l11.8 5c40.3 17.3 63 35 63 74.5 0 42.6-33.5 66-78.5 66-44 0-72.4-21-86.3-48.4z" fill="#513F26" fill-rule="nonzero"/><path d="M53.8 108l8.4-26L40 66h27.6L76 40l8.6 26h27.6L90 82l8.4 26L76 92l-21.7 15.6-.5.4zM0 419.8h506v85H0z" fill="#B71234" fill-rule="nonzero"/></svg>