<svg width="505" height="505" xmlns="http://www.w3.org/2000/svg" fill-rule="evenodd" clip-rule="evenodd" stroke-linejoin="round" stroke-miterlimit="1.414"><path fill="#F6DE1E" fill-rule="nonzero" d="M0 .5h504.67V505H0z"/><path d="M46.594 379.624h11.612c0 .263-.014.615-.04 1.056-.03.442-.042.758-.042.95 0 2.124.288 3.604.864 4.44.577.835 1.55 1.253 2.924 1.253 1.4 0 2.388-.31 2.965-.93.576-.622.865-1.696.865-3.224 0-1.96-.31-3.47-.927-4.53-.618-1.07-1.997-2.4-4.138-4-3.075-2.27-5.285-3.94-6.63-5.02-1.345-1.08-2.375-1.97-3.088-2.69-1.16-1.1-2-1.98-2.52-2.65-.52-.67-.92-1.33-1.2-1.97-.3-.67-.52-1.52-.64-2.54-.13-1.03-.19-2.38-.19-4.05 0-4.71 1.27-8.08 3.81-10.14 2.54-2.06 6.72-3.08 12.54-3.08 5.1 0 8.81 1.08 11.11 3.26 2.3 2.17 3.46 5.65 3.46 10.45 0 .57-.05 1.44-.13 2.61-.03.16-.04.3-.04.39H65.45v-1.68c0-2.15-.24-3.61-.72-4.37-.48-.77-1.365-1.15-2.655-1.15-1.318 0-2.265.32-2.842.95-.576.63-.864 1.71-.864 3.24 0 2.48 1.51 4.8 4.53 6.95.52.38.93.68 1.24.89 2.6 1.95 4.75 3.61 6.42 4.96 1.67 1.34 2.76 2.3 3.25 2.88 1.07 1.24 1.86 2.31 2.37 3.2.51.89.93 1.85 1.25 2.88.09.28.15.86.19 1.73.05.87.07 2.03.07 3.49 0 5.11-1.14 8.66-3.42 10.65-2.28 1.99-6.25 2.99-11.9 2.99s-9.73-1.05-12.21-3.13c-2.49-2.09-3.73-5.5-3.73-10.23 0-.55.02-1.51.08-2.87.03-.43.05-.78.08-1.04zm36.336 16.22l10.296-52.28h16.1l10.295 52.28h-12.39l-1.36-9.166h-9.18l-1.36 9.167h-12.4zm15.03-18.69h6.55l-3.213-24.636-3.336 24.635zm58.78 6.086c0 5.11-1.132 8.66-3.396 10.653-2.265 1.993-6.335 2.99-12.21 2.99-5.902 0-9.98-.99-12.23-2.972-2.25-1.98-3.376-5.53-3.376-10.67v-27.07c0-5.15 1.125-8.72 3.376-10.68 2.25-1.97 6.328-2.95 12.23-2.95 5.875 0 9.945 1 12.21 2.99 2.264 2 3.397 5.55 3.397 10.65v5.88h-11.9v-5.66c0-1.67-.29-2.87-.88-3.6-.59-.72-1.56-1.09-2.9-1.09-1.29 0-2.21.35-2.78 1.06-.56.71-.84 1.87-.84 3.49v26.93c0 1.67.27 2.85.81 3.53.54.68 1.48 1.02 2.82 1.02 1.38 0 2.35-.37 2.93-1.13.58-.75.87-2.04.87-3.88v-6.16h11.9v6.7zm20.98-18.87c.218.024.465.042.74.054.275.012.673.018 1.194.018 1.757 0 3.054-.287 3.892-.86.837-.573 1.255-1.48 1.255-2.72v-4.692c0-1.193-.43-2.077-1.29-2.65-.86-.572-2.17-.86-3.93-.86-.49 0-.87.007-1.13.02-.26.01-.5.03-.72.053v11.637zm7.905 29.04v-16.114c0-1.384-.446-2.417-1.338-3.097-.892-.68-2.272-1.02-4.14-1.02-.246 0-.54.01-.884.03-.343.02-.858.07-1.544.14v22.48h-11.49v-52.28h16.22c4.39 0 7.84.85 10.33 2.54s3.74 4.02 3.74 6.98v7.62c0 2.27-.73 4.08-2.18 5.44-1.46 1.36-3.49 2.11-6.1 2.25 3.1.21 5.39 1.08 6.87 2.59 1.48 1.51 2.22 3.78 2.22 6.78v15.61c.11.45.29.87.55 1.27.26.39.61.78 1.05 1.16H187.2c-.55-.26-.954-.59-1.215-.97-.26-.38-.39-.87-.39-1.47zm17.643 2.435l10.294-52.28h16.1l10.295 52.28h-12.394l-1.36-9.167h-9.182l-1.35 9.167h-12.4zm15.03-18.692h6.547l-3.212-24.635-3.335 24.635zm58.78 18.692H265.34l-8.193-44.437.453 44.437h-10.995v-52.28h18.736l1.78 11.746.46 2.98c1.84 11.82 3.06 20.35 3.67 25.6.47-3.84 1.05-8.2 1.75-13.09.7-4.88 1.48-10.05 2.33-15.52l1.77-11.71h18.7v52.28h-10.96l.41-44.43-8.15 44.44zm54.742-52.28v9.526h-13.505v10.71h12.97v9.53h-12.97v13h13.506v9.53h-25.24v-52.28h25.24zm33.21 52.28c-2.252-7.233-4.38-14.37-6.383-21.413-2.004-7.042-3.898-14.037-5.683-20.983l.33 42.39h-10.79v-52.28h16.225c2.41 7.92 4.63 15.43 6.65 22.52 2.01 7.09 3.8 13.71 5.37 19.87l-.33-42.4h10.95v52.28h-16.34zm32.92 0v-42.61h-8.854v-9.67h29.483v9.67h-8.78v42.61h-11.86zm39.384-39.46v26.64c0 1.624.288 2.812.864 3.563.577.752 1.497 1.128 2.76 1.128 1.482 0 2.51-.346 3.088-1.038.576-.692.865-2.065.865-4.118v-26.103c0-1.838-.28-3.092-.84-3.76-.56-.67-1.54-1.003-2.94-1.003-1.34 0-2.31.364-2.9 1.092-.59.728-.88 1.928-.88 3.6zm19.312 26.855c0 5.157-1.125 8.72-3.376 10.69-2.25 1.968-6.3 2.953-12.148 2.953-5.902 0-9.98-.99-12.23-2.972-2.25-1.98-3.377-5.53-3.377-10.67v-27.07c0-5.15 1.126-8.72 3.377-10.68 2.25-1.97 6.328-2.95 12.23-2.95 5.847 0 9.897.99 12.148 2.96 2.25 1.97 3.376 5.53 3.376 10.69v27.07z" fill="#513F26"/><g fill-rule="nonzero"><path d="M224.973 279.79c-.48.023-.688 1.013-1.12 1.314-.892.895-2.608-.584-2.946.98-.268.95-1.795 1.154-2.513.866-.1-1.957-1.717-.662-2.673-.09-.84 1.032-2.28-.148-3.24.023-.64-.237-1.7-.1-1.37-1.023.76-.554-.18-2.17-.73-1.112-.75.148-.26.617-.89.69-1.21 1.075-.12-1.697-1.53-1.09-.4 1.43-2.23 1.632-3.63 1.58-1.13.11-2.18.676-3.36.51-.07-.002-.12.033-.16.067l-5.21.156-5.98 1.34c-3.3.73-6.22 1.36-6.48 1.38-.51.04-.82.12-1.53.36-.31.11-40.68 9.08-40.85 9.08l-1.48-.62-.5-.09-.66-.13-1.37-.29-1.05-.69-.3-.37h-.77l-.87.45-.66-.22-1.1.12-1.39.53-.71-.15-.87.09-.48.25-.32-.2.07-.55-.09-.91-.75-.02-.57.73-1 1.09-.68.03-.57-.49-.52-.4-.53.12-.18.24-1.62 1.54-.16.16-.66.18-.71-.24-.41-.24-.69.64-.52 1.07-.57.45-1.46.4-.56-.22-.41-.71-1.55.27-.43.33-.36.09-.87-.93-.45-.56-.59-.11-.45.18-.78.29-1.19-.11-.18.71.16.29.41 1.14-.38.58-1.07.36-.19.47-.41.47-.62.16-.96.18-.86.27-.55.22-1.44.53h-.89l-.41-.16-.67.29-.95.16-.62-.55-1.23-.91-.64.51-1.35 1.56-1.3-.17-.23-.84-.55-.71-.55.36-.29.52-.43-.05-.23-.75-.05-.58H92l-.59.51-.48.85-.364.2-.41-.42-.32-.95-.16-.63-.687-.11-.14.73-.14.47-.09.42-.25 1.32-.43.44-.39-.2-.27-.4-.53-1.24h-.64l-.21 1-.6 1.03-1.94 2.2-1.56.25-.69-1.71-.3-.09-.23.42-.46 1.49-.69.15-1.05.13-.53.35-.48.05-.14-.4-.39-.71-.53.6-.3.89-1.49.98-1.51.07-3.2 2.02-.98-.25h-.69l-1.99 1.07-1.17.34-1.64.49-.89.05-.59-.17-1.28.25-1.6.51-2.9.62-.48.02c-1.05.79-2.16 1.26-3.41 1.62-.36 0-1.1.17-1.76.42-.52.2-.55.22-.59.51-.16.35-.41.69-.3 1.07.73.53 2.77.81 4.34.78.12.15 1.22.15 1.48 0 5.79.04 10.43-.51 15.49.31 1.05.22 2.18.33 2.51.24 2.13.01 4.24.05 6.35.13.59-.01 1.19-.04 1.79 0 .53-.01 1.9-.05 3.03-.07 2.46-.04 4.03-.11 4.13-.2 2.13.87 4.29.75 6.35.89.25.12 1.27.18 3.95.24.57.02 1.19.12 1.74.07 7.51-.44 14.52-1.19 21.95-1.6 1.25-.08 2.6-.27 3.72-.31 0-.01 1.29-.04 3.08-.08.65-.03 1.32-.07 1.94-.07.42-.13 2.92-.17 4.07-.06 7.36.41 14.04.29 21.34 1.02.33.1 1.42.18 1.92.15 6.17-.02 11.6.53 17.81.67 1.25.08 2.5 0 3.74.18 1.5.07 2.96.08 4.45.29.33.02.66.05.71.09 4.42.58 9.1.62 13.47 1.29.34.1 2.02.12 2.17.02.73-.03 1.46-.13 2.19-.2.89-.01 1.67-.45 2.24-.05.16-.1 1.24-.15 1.44-.06 1.81-.3 3.62-.01 5.46-.11 1.84-.02 3.66-.16 5.5-.24 1.18-.03 2.35-.24 3.54-.22.52 0 1.07.03 1.6-.14.38-.08.9-.11 1.3-.09 2.34-.05 4.67-.57 7.03-.45 1.85-.3 3.58-.27 5.3-.49 2.18-.01 4.3-.54 6.49-.53 3.59-.19 7.14-.44 10.65-.73 2.72-.15 6.18-.49 8.09-.51 4.62-.06 10.32-1.01 14.17-.98 1.12-.09 2.25.02 3.29-.09 1.67 0 3.18-.24 4.89-.24 2.9-.37 5.75-.51 8.97-.6.17-.06.7-.11 1.47-.13.87-.03 1.65-.31 2.49-.2 2.83-.24 5.79-.27 8.59-.31.03.06.29.07.75.04.82-.05.84-.04 1.53-.02 3.4.24 7.26-.06 10.51.04 5.18.34 10.84.4 16.04.51 5.91.19 12.1.22 17.73.91 11 .7 18.94.01 28.41.91 1.17.14 2.35.25 3.54.2.25 0 2.8.07 3.22.09 5.71-.11 12.89-.43 15.99-.47 2.26-.02 3.66-.06 3.67-.11 9.62-.4 16.46-1.69 26.07-1.4 3.75-.44 7.47.45 11.26.31.32-.01.63-.01.96-.04.63-.03 1.15.04 1.8.11.8-.03 1.64-.11 2.67-.31 1.21-.41 1.68-1.32 1.6-2.65-.06-.72-.2-.94-.67-1.11-.71-.34-1.49-.59-2.15-.98-.33-.17-1.19-.51-1.3-.51-.27-.24-.46-.51-.8-.69-.14-.14-.44-.29-.73-.37-.58-.49-1.11-1.03-1.73-1.47-.3-.27-.48-.36-.82-.37-.72-.03-1.42-.18-1.55-.34-.1-.11-.2-.12-.37-.09-.18.04-.25 0-.44-.17-.21-.33-.4-.87-.78-.93-.14.04-.21.01-.34-.18-.17-.39-.26-.8-.62-1.11-.35-.21-.67-.53-1.1-.62-.03-.1-.52-.22-.87-.22-.23 0-.3-.06-.5-.38-.14-.21-.28-.57-.32-.8-.12-.61-.26-.85-.55-.98-.34-.15-.43-.46-.89-.27-.21.01-1.1.35-1.31.49-.13.09-.35.11-.98.09-.44-.02-.84-.02-.89-.02-.39-.52-.77-1.12-1.32-1.51-.06 0-.27-.16-.48-.36-.33-.31-.41-.33-.71-.33-.48-.42-.84-.73-.98-1.36-.16-.14-1.19-.16-1.19-.03 0 .24-.74.36-1.01.15-.08-.06-.19-.21-.25-.36-.09-.19-.2-.28-.39-.33l-.62-.18c-.48-.14-.87-.1-1.17.13-.13.11-.38.28-.55.38-.14.17-.35.28-.41.49-.17.06-.66-.07-.73-.2-.17-.16-.4-.28-.51-.49 0-.14-.26-.11-.64.09-.33.17-.39.15-.55-.22-.12-.27-.13-.39-.07-.56.17-.47.03-1.19-.25-1.27-.21-.05-.8.34-.8.53-.55-.34-.96-.86-1.05-2.18-.06-.13-.14-.3-.16-.38-.07-.22-.32-.15-.6.16-.34.36-.69.72-.91 1.16-.11.26-.28.33-.51.22-.14-.07-.16-.17-.2-.53-.04-.35-.09-.46-.23-.56-.17-.12-.22-.1-.62.09-.42.7-.95 1.74-1.87 1.25-.17-.46-.02-1.27.32-1.78l.2-.33-.2-.53c-.26-.33-.37-.88-.76-.91-.38-.03-.9.35-1.12.71-.18.19-.2.61-.57.56 0 .16-.29.06-.55-.2-.15-.15-.31-.27-.36-.27-.21.01-.68.44-.82.76-.11.25-.22.35-.37.38-.2.16-.44.28-.62.49-.13-.17-.41-.31-.46-.58-.18-.25-.22-.65-.07-.78.16-.13.22-.55.09-.66-.2-.37-.22-.8-.73-.94-.2 0-.35-.28-.44-.84-.04-.25-.02-.42.09-.69-.15-.69-.23-1.29-.91-1.69-.13 0-.44.47-.57.89-.2.19-.31.47-.62.58-.34.37-.67.17-.93-.53-.21-.55-.36-.75-.62-.82-.21-.06-.38.05-.53.35-.08.16-.08.36-.03.98.04.43.05.89.02 1.02-.09.69-.1 1.43-.51 2.02-.26.2-.94-.29-.94-.67 0-.12-.09-.25-.25-.37-.35-.46-.59-.87-1.21-.98-.39-.06-.66-.23-.78-.47-.11-.21-.13-.81-.05-.86.11-.34.28-.66.16-1-.07-.17-.18-.34-.25-.38-.36.2-.8.35-1.08.8-.41.23-.67.47-1.21.38h-.74l-.41-.51c-.63-.76-.82-.65-.84.51-.27.61-.56.99-1.12.58 0-.19-.01-.19-.23-.14-.13.03-.34.11-.46.18-.12.06-.37.12-.55.13-.18.02-.37.06-.43.11s-.18.07-.27.04c-.1-.03-7.32-.54-16.06-1.14l-15.9-1.09-.19-.24c-.26-.33-.5-.38-.66-.16-.1.14-.17.15-.32.11-.2-.05-.28-.1-.62-.55l-.91-.36-1.14.09-.14-.24-.13-.22-.35-.29-.85.42-.36.28h-.32l-.66-.49-.73-.51-.59.4-.83.07-.8-1.16-.94-.2-.13.27-.46.55-.32.18-.73-.47-1.027.31-1.05-.48-.75-.83-.66-.24-.77.24-.57-.4-.48-.71-1.12 1.05-.53-.27-.62-.25-.55.34-.71 1.36-2.49.22-.2-1.42-.18-.65-.39.42h-.62l-2.06-.24-.3-.75-.29-.8-.57-.26-1.05 1.38-.39.25-.36-.04-.32-.47-.55-.35-.78.47-.76.82-.34.29-.8.18-.16-.42-.05-.71-.16-1-.55-.11-.91.8-1.53 1.2-.07-.73-.44-.98-.57.38-.41.82-.8-.372-.66-.67-.34-.16-.34.11-1.35 1.38-1.42.67-.54.2c-.03 0-20.58 2.75-32.32 2.93-11.74.17-10.47-2.3-10.52-2.3-.09 0-.09-.13-.05-.67.03-.55 0-.69-.1-.8-.11-.26-.24-.51-.35-.76-.08-.08-.14-.18-.14-.24s-.07-.13-.14-.13c-.34-.03-.81.02-.91.11-2.24-.34-3.14 1.18-4.54 1.53-.25 0-.35.03-.39.14-.03.07-.17.27-.32.42-.15.15-.28.33-.3.38-.02.07-5.46-.19-23.62-1.16l-1.99.11c.01-.05.01-.1.03-.14-.86.3-1.44-1.33-2.423-.85-1.08.72-1.51-.33-1.69-1.16-.74.24-1.86 1.34-2.92.91-1.006-.94-2.377.73-3.61.4-.28-.21-.93-1.67-1.23-1.04-1.27.96-.317-1.68-1.6-1.44-.14.68-1 1.2-1.08.13-.24-.26-.43-.36-.594-.35z" fill="#584528"/><path d="M225.202 283.652c-2.533.417-4.29 2.956-7.014 2.216-2.32-.576-4.477.96-6.92-.297-2.43-1.55-5.118-1.13-7.793-.43-15.805 1.02-31.016 6.07-46.537 9.14-5.88 1.04-11.9 3.13-17.797 3.09-2.87-1.24-6.03-2.13-8.97-.87-4.12-.76-7.92.62-11.24 2.95-2.27 1.93-5.56-.96-7.45.34-2.77 3.33-7.69 4.3-11.83 4.35-1.69-.72-3.15 1.7-5.09.55-2.8-1.61-5.5.26-8.18 1.12-2.93 3.31-7.98 2.01-11.69 4.34-2.3 1.35-4.36 2.38-6.97 2.49-3.49 1.05-2.75 1.26.69 1.19 9.12 1.4 18.41-.2 27.48 1.4 15.64.55 31.15-2.99 46.82-1.65 18.18 1.12 36.43 1.18 54.54 3.25 27.87.03 55.6-3.61 83.43-4.82 27.13-2.54 54.37-.77 81.52.44 15.34.21 30.68 1.55 46.01.21 12.65-.87 25.38-1.91 38.02-1.06-2.66-2.76-6.99-2.52-9.02-6.03-2-.2-2.48-2.73-4.61-1.92-3.08-.27-4.16-3.95-7.36-3.74-1.49-.24-3.4.98-5.05-.2-2.19-.33-2.64-3.94-5-2.51-1.9.93-4.29-.21-4.96-1.65-.88 2.23-2.41 1.65-3.81.23-1.3-1.01-1.19-4.62-2.51-1.92-2.02 2.09-4.23-.12-5.62-1.67-2.49-2.49-6.19.75-9.32-.36-11.39-1.35-23.3-.72-34.34-3.33-2.97-.16-5.79-1.1-8.82-1.19-2.16-.94-4.71-2.22-6.6-.04-3.76 2.06-6.25-3.29-9.89-1.85-2.4.93-4.75.43-6.92 1.53-1.91.27-2.7-3.24-4.29-.93-13.15 2.75-26.78 3.61-40.23 3.59-3.16-.1-7.15-1.75-8.04-4.5-2.12 1.99-4.8 2.88-7.7 2.16-8.23-.3-16.45-1.33-24.7-.81-.29-2.02-3.58-1.06-5.28-1.44-2.35 1.12-4.67-.19-6.79-1.37l-.11.07z" fill="#008542"/><path d="M199.364 298.256c-.02-.045.035-.148.123-.228.088-.08.16-.178.16-.22 0-.04.12-.115.265-.167.233-.08.263-.11.246-.29-.026-.26.14-.31.206-.06.048.18.072.2.328.17.213-.02.308-.07.41-.22.124-.18.126-.21.024-.46-.06-.15-.164-.3-.228-.33-.065-.03-.118-.1-.118-.16 0-.08.075-.09.522-.05.578.05.55.07.653-.42.027-.13.09-.24.135-.24.133 0 .578.25.578.32 0 .04.118.07.262.07.312 0 .4-.11.398-.49 0-.33.042-.38.274-.27.285.13.46 0 .568-.41.052-.19.12-.35.15-.35.032 0 .136.07.23.16.097.08.28.16.41.17.196.02.243.05.277.21.03.15.077.19.2.18.248-.02.288.22.05.32-.138.06-.176.11-.145.21.023.07.042.17.043.21.002.18.3.07.505-.17.247-.29.436-.37.615-.24.07.05.185.11.258.13.073.02.133.08.133.13s.08.15.18.23l.182.15.29-.16c.272-.15.292-.18.292-.47v-.31l.432-.14.432-.14.262.2c.237.19.266.25.31.65.024.25.078.48.12.51.04.04.18.07.314.07.726.03 1.153.1 1.245.21.086.11.14.11.595.05.516-.07.543-.09.71-.47.06-.14.135-.21.215-.19.144.02.206.29.09.39-.152.13-.088.24.138.24.237 0 .685.17.783.3.033.04.11.08.17.08.162 0 .36.3.31.46-.064.21-.407.5-.542.45-.062-.02-.155-.01-.21.03-.162.12-.3-.01-.244-.23.06-.23-.075-.33-.22-.17-.088.1-.126.11-.28.04-.15-.07-.22-.06-.406.02-.122.06-.263.1-.312.1-.05 0-.11.05-.132.12-.035.09-.14.11-.567.12-.367.01-.6.05-.782.14-.38.19-.6.09-.43-.2.08-.13-.02-.25-.11-.13-.02.04-.16.07-.3.07-.15 0-.27.04-.29.09-.05.13-.5.13-.5.01 0-.06-.13-.1-.4-.13-.61-.06-.76-.03-.8.19-.03.18-.07.2-.35.21-.21.02-.35-.01-.43-.08-.08-.07-.28-.11-.61-.12-.35-.01-.53-.05-.65-.14-.12-.09-.19-.1-.29-.05-.25.14-.59.17-.64.06-.06-.12-.25-.13-.3 0-.02.06-.14.1-.26.1s-.24.03-.27.06c-.02.03-.44.06-.94.06-.67 0-.99.03-1.31.12-.35.1-.42.1-.48.03-.05-.07-.1-.06-.25.06-.16.13-.27.15-.71.15-.35 0-.52-.03-.55-.09zm155.713 2.245c-.028-.02-.052-.09-.052-.16 0-.14.01-.14-.327-.02-.19.07-.325.08-.453.04-.32-.1-1.05-.07-1.157.05-.088.1-.097.1-.1-.03-.003-.19-.46-.3-.647-.16-.03.03-.16.08-.27.1-.16.04-.19.02-.16-.05.07-.15-.12-.28-.4-.28-.14 0-.25-.02-.25-.06 0-.03-.15-.04-.37-.02-.2.02-.47.01-.6-.03-.18-.05-.29-.04-.51.03-.16.06-.37.09-.5.06-.12-.02-.27 0-.32.04-.1.07-.27.06-1.54-.07-.72-.08-1.1-.09-1.55-.07-.16.01-.57-.01-.9-.06-.89-.11-1.95-.1-2.52.03-.55.13-.83.1-.83-.08 0-.16-.26-.28-.5-.23-.15.03-.18.02-.16-.07.02-.08.1-.11.28-.11.17 0 .29-.05.39-.15.13-.14.17-.15.76-.11.78.05.98-.01.98-.26 0-.24-.1-.29-.6-.29-.32 0-.42-.02-.42-.09 0-.07.12-.1.46-.13.25-.02.59-.09.76-.16.17-.06.53-.16.8-.22.36-.07.5-.13.52-.22.02-.09-.01-.1-.17-.07-.18.04-.19.03-.18-.16.02-.18 0-.21-.14-.21-.22 0-.28-.06-.14-.16.07-.05.12-.14.12-.2 0-.18.39-.31.88-.31h.44l.01.37c.01.5.22.82.53.79.12-.01.31-.09.43-.19.12-.09.27-.17.34-.17.07-.01.32-.01.56-.02.4-.01.43-.02.48-.19.03-.09.1-.22.16-.28.09-.08.1-.19.07-.42-.04-.26-.02-.33.1-.42.15-.12.53-.1.53.03 0 .04.13.22.28.42.2.26.29.44.31.69.04.37.09.43.44.43.14 0 .33.06.47.17.15.11.33.17.51.17.27.01.28 0 .32-.23.05-.3.16-.31.27-.03.06.16.19.26.53.43.41.2.45.2.54.1.05-.06.1-.16.1-.22 0-.12-.31-.39-.44-.39-.05 0-.09-.06-.09-.13 0-.22.3-.15.61.13.16.14.37.28.48.32.34.11.56.76.31.88-.06.03-.12.17-.13.31-.02.25-.02.26.24.24.17-.01.31.02.42.11.11.09.23.11.4.09.22-.03.24-.06.24-.24s.04-.22.32-.34c.51-.21.61-.05.16.28-.34.25-.31.38.09.45.24.04.3.03.41-.09.08-.09.17-.13.25-.1.16.05.16.36.01.41-.17.05-.14.14.07.22.19.08.27.22.21.36-.05.13-.23.1-.32-.05-.11-.18-.48-.15-.48.04 0 .13-.19.21-.29.12M254 303.9c0-.11-1.016-.16-1.653-.08-.45.06-.53.03-.39-.11.16-.16.04-.29-.22-.25-.18.03-.23.02-.23-.06 0-.06.08-.12.18-.14.1-.023.2-.093.22-.16.02-.082.08-.11.19-.08.18.04.49-.11.61-.3.1-.16.02-.32-.17-.32-.26 0-.11-.15.39-.39.32-.15.51-.298.57-.42.13-.25.12-.44-.01-.535-.13-.09-.09-.34.12-.76.12-.24.16-.27.25-.2.06.04.11.11.11.16s.06.12.12.16c.1.06.15.07.27.01.35-.19.53.02.21.24l-.16.11.167.07c.09.044.17.13.17.197s.04.16.1.21c.06.04.16.17.22.27s.19.24.27.31c.14.1.19.11.37.04.12-.04.26-.12.32-.17.07-.06.22-.15.35-.22.14-.06.31-.24.41-.41.17-.293.18-.3.46-.26.38.056.5-.01.33-.17-.1-.09-.11-.14-.044-.192.063-.06.12-.05.24.04.14.11.17.11.47.01.38-.12.56-.32.43-.46-.05-.05-.077-.13-.05-.18.043-.11.4-.06 1.01.12l.39.12.224-.14c.13-.08.26-.14.29-.14.04 0 .1-.09.14-.21.11-.31.304-.27.274.06-.01.18.02.29.1.34.07.04.12.15.12.23 0 .09.06.16.15.19.2.05.2.22.01.22-.27 0-.35.15-.35.64 0 .44.02.48.17.49.1.02.16-.01.16-.07 0-.14.195-.25.59-.33.245-.05.363-.11.38-.2.02-.06.093-.17.17-.23.11-.083.12-.14.067-.23-.115-.185-.09-.51.034-.51.06 0 .13.053.15.12.08.22.49.25.49.03 0-.144.15-.103.22.065.04.08.19.23.34.32.25.17.26.18.16.35-.06.1-.19.21-.3.25-.21.08-.25.28-.15.71.04.17.09.21.36.27.17.04.36.09.42.12s.34.05.62.06c.43 0 .52-.01.59-.12.08-.14.33-.16.64-.06.18.06.23.04.44-.16.28-.26.39-.28.46-.09.03.087 0 .177-.11.27-.24.22-.2.33.21.558.34.19.5.38.31.38-.04 0-.14.057-.21.12-.1.09-.24.12-.53.12-.22 0-.4-.02-.4-.04s-.26-.04-.58-.044c-.38-.01-.6-.04-.64-.09-.05-.07-.09-.07-.22 0-.1.05-.19.06-.25.02-.05-.03-.18-.08-.29-.1-.19-.04-.21-.03-.21.14 0 .2-.31.5-.45.43-.06-.03-.07-.13-.04-.29.03-.2.02-.25-.07-.25-.06 0-.14.05-.16.12-.03.07-.08.13-.11.13-.04 0-.17.09-.29.2-.23.19-.4.2-.4.02 0-.12-.24-.22-.52-.22-.13 0-.24-.04-.27-.09-.02-.05-.14-.1-.26-.1s-.24-.04-.26-.08c-.05-.1-.58-.06-.62.05-.01.04-.05.15-.07.25-.06.22-.24.23-.3.02-.06-.2-.42-.23-.48-.03-.04.15-.05.15-.27.03-.21-.12-.92-.08-1.18.06-.15.08-.42.09-2.38.13-1.34.02-1.68.05-1.73.12-.08.11-.28.12-.28 0m73.6.55l-.03-.11c-.01-.04-.02-.1-.03-.15-.01-.1-3.15-.11-3.22-.02-.09.12-.54.07-.65-.06-.13-.15-.64-.26-1.42-.28-.48-.02-.59 0-.82.13-.31.18-.29.18-.54.03-.2-.12-1.41-.28-1.92-.26-.3.01-.51.12-.51.26 0 .13-.3.23-.41.13-.05-.04-.01-.12.09-.21.2-.18.21-.27.05-.21-.07.02-.21-.02-.32-.09-.17-.11-.27-.12-.73-.09-.29.02-.89.03-1.33.03-.44-.01-.87-.01-.97-.01-.1 0-.17-.03-.17-.09 0-.09-.11-.1-.86-.08-.47.01-.91.05-.96.08-.06.03-.23.07-.37.09-.22.03-.27.07-.29.2-.03.2-.2.27-.33.14-.07-.07-.07-.12 0-.17.13-.11.1-.41-.05-.67-.16-.27-.14-.46.05-.46.23 0 1.02-.26 1.18-.39.11-.08.27-.12.54-.12.35 0 .38-.01.46-.2.1-.22.25-.2.25.04 0 .13.05.16.42.23.49.09.66.04.7-.23.05-.35-.32-.73-.7-.73-.07 0-.12-.04-.12-.09 0-.13-.24-.28-.46-.31-.11-.01-.19-.06-.19-.12 0-.08.14-.1.73-.12.67-.01.73 0 .76.12.04.12.28.18.28.06 0-.03.05-.06.12-.06s.11-.05.11-.1c0-.13.14-.18.27-.1.19.13.44.02.61-.27.14-.24.19-.27.39-.25.14.01.34-.05.52-.15.43-.24.49-.29.43-.4-.03-.06-.07-.17-.09-.26-.03-.13-.01-.15.18-.13.24.02.22-.04.38 1 .05.35.28.57.52.5.13-.05.15-.27.04-.33-.11-.06-.09-.16.03-.2.06-.02.18.02.26.1.12.1.25.13.65.13.44 0 .49.01.49.13 0 .18.17.21.44.1.21-.1.22-.13.19-.38-.08-.65-.08-.66.1-.68.13-.02.17.01.17.1 0 .15.33.46.5.46.07 0 .18.03.26.06.11.05.13.1.08.3-.04.13-.05.27-.02.32.06.13.47.04.64-.14.16-.17.39-.15.32.03-.04.11.13.31.29.32.22.02.55-.02.63-.08.04-.03.07-.11.04-.18-.04-.12-.01-.13.55-.1.54.03.71.09.71.24 0 .03-.06.07-.12.1-.07.03-.16.12-.21.19-.05.07-.15.2-.22.28-.07.08-.14.25-.15.36-.02.19.01.23.28.36.37.17.56.13.67-.17.07-.17.13-.22.27-.22.1 0 .35-.09.55-.21.41-.24.47-.25.54-.1.03.08-.02.16-.18.27-.31.21-.29.31.07.36.37.05.36.18-.03.2-.19.02-.31.07-.41.2-.17.2-.24.43-.19.56.07.15.44.28.8.28.18 0 .44.03.59.06.24.05.28.04.5-.13.13-.11.27-.19.32-.19.13 0 .23.19.19.33-.06.18.11.24.56.19.39-.04.4-.03.4.13s-.02.17-.33.17c-.18 0-.35.03-.38.06-.05.07-.7.45-.76.45-.02 0-.09.04-.15.1-.12.1-.55.13-.57.05zm-37.58.56c-.14-.03-.35-.11-.47-.19-.13-.08-.23-.11-.26-.07-.07.08-.67.08-.78-.01-.11-.1-1.59-.08-1.73.01-.06.04-.22.06-.36.04-.19-.01-.28.01-.34.1-.08.11-.1.11-.23.02-.12-.09-.19-.1-.49-.03-.36.07-.58.05-.58-.07 0-.03.05-.06.11-.06.19 0 .21-.18.04-.36-.19-.2-.21-.35-.05-.35.05 0 .15-.02.22-.04.08-.03.13.02.18.17.05.17.12.23.3.27.41.1.5.03.44-.37-.04-.3-.03-.36.08-.39.07-.02.22-.08.33-.13.21-.1.82-.13.82-.05 0 .12.47.22.77.16.26-.05.32-.09.39-.28.05-.12.16-.24.25-.27.22-.07.23-.35.01-.4-.1-.02-.14-.07-.11-.11.04-.06.28-.07.88-.03.45.02.82.02.82 0s-.04-.1-.08-.18c-.06-.1-.05-.15.03-.22.16-.14.33-.05.34.18.01.21.11.3.37.3.09 0 .2.04.25.1.05.05.13.07.17.05.05-.03.19-.04.31-.03.13.01.28-.01.34-.05.07-.04.2-.03.36.03.24.08.25.08.42-.15l.17-.25c0-.01.1-.03.21-.06.15-.03.21-.02.21.04 0 .05.1.13.22.19.13.06.21.16.21.23-.01.09.03.11.25.1.28-.02.45-.15.45-.35 0-.07.03-.18.08-.24.07-.12.09-.12.43.04.2.09.43.23.51.31.18.18.44.2.61.03.1-.09.19-.11.42-.08.17.02.34 0 .4-.04.15-.1.94-.25.99-.19.02.03.02.13-.01.21-.02.09-.02.22.01.3.04.11.1.13.32.11.24-.01.28-.04.3-.19.03-.21.2-.23.31-.05.05.07.13.12.18.12.22-.02.28.02.28.19 0 .3.35.35.82.12.23-.12.33-.13.5-.08.13.04.22.12.24.2.02.13-.01.15-.3.15-.46 0-.82.12-.82.28 0 .07-.15.27-.32.43l-.32.3-.51-.03c-.46-.02-.53-.01-.63.12l-.12.14-.15-.18c-.09-.11-.19-.16-.26-.14-.07.02-.11-.01-.11-.08 0-.09-.03-.1-.17-.07-.09.03-.31.06-.49.08-.19.02-.35.07-.37.12-.03.07-.14.09-.4.08-.19-.01-.4.01-.45.04-.07.03-.14.02-.19-.04-.08-.09-.44-.11-.8-.04-.26.05-.96.12-1.3.13-.15.01-.3.03-.33.06-.03.02-.17.04-.31.04-.14 0-.31.02-.38.06-.07.03-.33.09-.57.14-.35.06-.47.06-.59 0-.13-.07-.19-.06-.33.02-.2.11-.32.11-.71.03zm103.24 1.21c-.03-.08-.03-.23 0-.33l.05-.2-.31.02c-.22.01-.31 0-.31-.06 0-.11-.15-.1-.5.02-.23.08-.49.11-1.13.09-1.15-.02-1.46-.04-1.83-.11-.26-.05-.35-.04-.44.04-.1.08-.15.09-.29.02-.22-.1-.48.02-.55.24-.05.19-.3.17-.26-.02l.04-.19c.01-.03-.07-.06-.18-.05-.23.02-.58.02-.83.02-.1 0-.36.01-.56.03l-.47.03c-.05 0-.1.08-.12.18-.02.14-.06.17-.21.17-.13 0-.22-.05-.29-.17-.08-.15-.14-.17-.4-.17-.17 0-.47-.05-.67-.11-.33-.1-.36-.1-.48 0-.26.23-.69.21-.6-.02.04-.1 0-.12-.28-.14-.23-.01-.33-.05-.35-.12-.04-.17.22-.25.54-.17.26.06.3.06.52-.12.13-.11.37-.24.53-.3.26-.1.31-.1.51-.01.28.12.61.13.61.01 0-.05.05-.13.11-.17.07-.05.1-.11.08-.13-.11-.15.06-.37.37-.47.56-.19.64-.15.46.23-.05.11-.05.11.21 0 .21-.08.28-.15.3-.3.03-.24.24-.28.27-.06.01.08.05.14.09.14.09 0 0-.41-.1-.44-.16-.05-.2-.32-.09-.52.09-.15.11-.29.07-.55-.04-.29-.03-.35.07-.39.17-.05.19-.01.2.34 0 .25.06.38.27.64.24.29.28.32.41.26.08-.04.14-.12.14-.16s.05-.1.12-.12c.07-.03.1-.08.07-.16-.04-.1-.01-.14.12-.16.12-.03.14-.05.06-.09-.05-.03-.18-.05-.27-.05-.23 0-.22-.18.02-.26.11-.03.23-.14.27-.23.06-.14.11-.16.29-.13.11.02.25 0 .29-.03.05-.04.14-.05.21-.03.1.03.12.09.08.32-.06.35.07.45.55.43.25-.01.41-.06.55-.17.13-.11.28-.16.47-.16.25 0 .28-.01.28-.18 0-.1-.05-.21-.09-.25-.07-.06-.05-.11.08-.24l.18-.16-.2-.29c-.25-.35-.22-.51.06-.4.1.04.21.14.23.21.02.08.18.25.35.38.23.18.3.29.3.44 0 .24.06.33.24.38.07.02.13.09.13.14 0 .16.19.11.38-.11.38-.42.64-.62.86-.64.22-.01.23 0 .25.23.02.18-.02.31-.13.43-.08.1-.15.26-.15.36 0 .16.05.2.39.32.21.08.41.13.45.11.03-.02.08-.15.11-.28.03-.14.06-.25.08-.25.02 0 .14.07.26.16.27.19.37.16.37-.13 0-.18.03-.22.15-.22.1 0 .15.04.15.13 0 .07.06.15.12.17.07.02.1.08.08.14l-.08.25c-.04.12-.02.14.14.14.18 0 .19.03.18.24-.01.22 0 .24.29.33.3.09.32.09.48-.04.09-.08.21-.14.26-.14.18 0 .82.26 1.19.48.19.11.42.23.51.25.09.03.16.1.16.17s.08.16.2.2c.16.06.19.11.17.28-.02.27.08.36.4.33.23-.02.26-.05.3-.24.04-.25.26-.35.33-.15.1.3.07.77-.08.93-.22.25-.77.28-1.23.08-.42-.19-.7-.2-.88-.03-.18.17-.34.16-.34-.01 0-.1-.03-.12-.13-.08-.07.02-.23.05-.36.06-.12 0-.3.04-.39.08-.09.04-.44.07-.77.07-.5 0-.62-.02-.68-.11-.07-.1-.08-.09-.08.04 0 .14-.02.15-.34.11-.2-.03-.4-.02-.49.03-.14.06-.17.05-.2-.06-.06-.18-.46-.19-.53-.02-.12.32-.29.41-.37.21zm-158.22.49c-.05-.1-.2-.2-.32-.24-.2-.06-.25-.05-.45.13l-.22.2-.17-.14-.17-.14-.19.13c-.23.15-.36.16-.36.03 0-.08-.12-.09-.66-.09-.36 0-.92.03-1.22.06-.58.06-.72.02-.63-.17.03-.07-.06-.09-.35-.09-.28 0-.4.02-.43.09-.05.11-.27.13-.38.04-.1-.08-1.86-.21-2.18-.16-.16.03-.31.02-.37-.03-.06-.04-.54-.08-1.15-.1-1.2-.04-1.44-.07-1.49-.2-.07-.14-.27-.11-.37.07-.1.19-.24.18-.27-.03-.02-.14-.04-.14-.47-.1-.6.05-.65.07-.7.3-.06.23-.28.23-.35-.01-.04-.12-.09-.15-.19-.14-.08.01-.39.03-.7.04-.3.01-.57.03-.6.05-.03.02-.11-.01-.19-.07-.11-.08-.3-.12-.79-.13-.71-.02-.99.06-1.2.33-.06.09-.15.16-.19.16-.16 0-.13-.19.05-.43.16-.2.19-.31.16-.45-.05-.18-.03-.19.16-.21.16-.02.21-.06.2-.15-.02-.18.18-.48.32-.48.17 0 .2.14.08.35-.13.21-.1.29.14.29.34 0 .45-.14.49-.65.01-.26.07-.49.11-.52.04-.02.21-.04.37-.04.22 0 .3-.03.33-.13.05-.16.3-.16.54-.01.12.08.17.16.13.23-.06.14.08.36.23.36.07 0 .31-.05.53-.11.3-.08.4-.14.41-.24.03-.26-.02-.39-.19-.61-.14-.18-.17-.3-.16-.63.02-.55.12-.61.46-.28.26.26.28.27.45.18.2-.11.26-.04.19.22-.04.14-.01.38.12.75.04.12.48.03.65-.13.07-.08.21-.17.3-.21.11-.05.17-.14.19-.29.01-.13.07-.25.13-.28.08-.04.09-.12.06-.3-.04-.21-.02-.25.13-.32.1-.05.2-.11.23-.15.04-.05.1-.05.2.01.08.04.28.08.44.08h.31l.07-.94.07-.94.33-.07c.19-.03.39-.13.47-.22.07-.08.17-.13.21-.11.1.06.04.61-.11.99-.15.4.05.97.34.97.17 0 .34-.39.42-.94.04-.27.07-.33.17-.32.1.02.12.08.1.31-.02.25.01.32.19.47.27.23.44.79.29.93-.16.15-.21.42-.12.66.11.3.25.39.44.3.19-.09.25-.22.28-.67l.03-.38h.25c.21 0 .25.03.32.21.04.11.15.28.24.36.09.08.17.2.17.26 0 .16.15.27.38.27.32 0 .49-.15.48-.43-.01-.25-.01-.25.38-.33.5-.1.69-.09.79.01.05.05.23.11.41.13.37.05.6.2.54.35-.03.08-.02.09.04.02.04-.05.1-.07.14-.05.11.06.39-.14.35-.25-.07-.14.04-.24.17-.15s.13.08.23-.17c.06-.15.11-.19.29-.19.17 0 .22.04.26.16.06.23.48.4.88.35.32-.04.47.04.31.15-.05.04-.29.11-.52.17-.24.06-.47.15-.52.2-.05.05-.14.09-.19.09-.12 0-.16.13-.18.48-.01.23.01.27.23.35.23.08.25.08.35-.05.12-.15.39-.19.39-.05 0 .05.08.1.17.11.1.01.17.06.17.11.01.31.34.57.73.58.1 0 .26.05.36.12.2.12.38.11.38-.03 0-.1.21-.18.31-.12.04.02.05.11.03.19-.06.19.13.27.35.16.29-.16.4.09.13.3-.09.07-.18.2-.21.29-.06.17-.16.23-1.02.65-.23.11-.18.12-.71-.2-.13-.08-.2-.09-.32-.04-.08.04-.22.07-.31.07s-.15.02-.15.05c0 .03-.05.11-.11.18-.1.12-.11.12-.2-.05m-114.72.24c-.13-.05-.34-.09-.48-.09-.46-.01-.96-.62-.67-.83.05-.03.26-.07.47-.09.31-.01.39-.04.48-.19.1-.15.1-.19 0-.34-.06-.09-.16-.18-.23-.2-.06-.02-.17-.05-.24-.09-.07-.03-.19-.04-.25-.02-.08.03-.14-.01-.19-.12-.08-.17-.44-.27-.6-.16-.11.08-.14.06-.18-.11-.02-.1.01-.12.15-.11.1.01.27-.03.39-.08.42-.18 1.63-.06 1.85.19.08.09.2.13.47.13.31 0 .38-.02.46-.15.05-.09.23-.23.41-.31.26-.14.37-.16.63-.11.45.07 1.69.09 1.56.03-.14-.08-.04-.26.14-.26.12 0 .16-.06.2-.26.03-.14.13-.36.23-.48.1-.13.18-.32.18-.44s.03-.22.08-.22c.12 0 .39.13.54.26.25.22 1.04.09 1.35-.22.14-.14.23-.19.28-.14.15.12 0 .35-.3.45-.27.09-.46.34-.34.45.05.04.78-.09.98-.18.18-.08.41-.01.47.13.03.09.47.26.67.26.09 0 .05-.22-.07-.34-.12-.13-.15-.35-.05-.35.03 0 .14.04.23.1.09.05.22.09.29.08.08-.02.15.06.23.28.1.26.14.3.33.3.28 0 .52.08.78.28.12.09.28.16.35.16.07 0 .17.04.23.1.05.05.15.09.22.09s.21.04.31.09c.11.05.27.12.36.16.1.03.17.1.17.14 0 .1.68.37.94.37.13 0 .22-.06.28-.18.16-.29.34-.26.39.05.02.14.06.27.08.29.02.02.35.04.74.04.65.01.7.02.72.14.01.08-.03.17-.09.22-.07.05-.12.15-.12.24 0 .11-.05.15-.15.15-.09 0-.21.08-.28.19-.16.23-.24.24-.65.06-.21-.09-.38-.12-.54-.09-.13.02-.34.01-.46-.02-.28-.06-1.12.01-1.15.1-.02.04-.07.12-.12.17-.12.13-.37.07-.34-.08.01-.07-.06-.11-.28-.14-.17-.02-.38-.07-.47-.11-.22-.1-.56-.09-.74.02-.2.13-.97.122-1.21-.01-.15-.08-.22-.09-.37-.03-.13.05-.25.05-.38.01-.13-.05-.24-.04-.35 0-.12.06-.17.05-.26-.05s-.11-.1-.18-.02c-.08.1-.23.12-1.15.12-.32 0-.78.05-1.01.11-.27.07-.53.09-.75.06-.27-.04-.33-.027-.33.06 0 .12-.01.12-.27 0-.27-.12-.55-.12-.83 0-.27.12-.51.13-.73.01-.1-.05-.39-.1-.72-.11-.5-.01-.57 0-.7.14-.2.21-.15.27.24.35.19.04.34.1.34.132 0 .1-.73.1-.98 0zm55.49.65c-.03-.05-.01-.17.03-.27.13-.28.1-.35-.15-.35-.12 0-.24.03-.27.06-.13.19-.49-.02-.49-.27 0-.13.55-.29 1.03-.29.41 0 .42-.01.53-.23.14-.28.09-.51-.13-.57-.13-.03-.15-.07-.11-.23.06-.26.18-.37.38-.35.13.02.15.07.15.33s.03.32.19.4c.41.19.75.02.47-.24-.12-.12-.12-.13.02-.21.08-.05.22-.09.32-.09.11 0 .21-.07.29-.19.06-.11.16-.2.22-.2.17 0 .28-.23.22-.48-.05-.21-.03-.22.14-.22.14 0 .2-.04.24-.16.07-.25.3-.2.58.13.13.16.29.3.35.32.2.07.46-.04.66-.25.2-.22.33-.28.34-.14 0 .05.08.16.18.26.13.14.23.18.39.16.19-.01.22-.06.31-.34.05-.17.12-.37.16-.44.11-.2.22-.5.23-.61.03-.67.04-.67.43-.51.23.09.24.11.29.57.03.32.02.52-.03.59-.12.16-.11.28.03.37.18.13.42-.02.64-.4.11-.19.26-.34.37-.38.21-.07.63.03.78.18.08.09.07.12-.1.24-.16.11-.2.19-.18.39.01.25.02.26.23.24.28-.02.9-.24 1.17-.41.2-.13.37-.11.37.04 0 .04.07.13.15.19.08.06.15.19.15.29 0 .22.12.33.39.33.11 0 .23.03.26.08.03.04.22.14.42.22.29.1.36.16.36.28 0 .23.15.3.76.35.38.02.5.05.42.09-.07.03-.12.14-.12.23 0 .18-.2.39-.37.39-.05 0-.24.06-.42.13s-.37.11-.42.09c-.05-.02-.1.01-.12.09-.06.2-.22.17-.32-.06-.04-.1-.11-.19-.14-.19-.117 0-.25.15-.25.28 0 .15-.18.1-.21-.06-.02-.11-.11-.12-1.17-.14-1.11-.01-1.66.03-2.55.22-.67.15-1.24.19-2.51.19-.65 0-1.19.02-1.19.04s-.34.04-.77.05c-.42 0-.8.03-.84.06-.03.03-.17.03-.31-.01-.16-.04-.37-.04-.66.01-.44.08-.55.15-.59.35-.037.15-.2.21-.26.09m242.89.71c-.02-.05-.05-.15-.06-.24-.02-.09-.07-.15-.13-.14-.06.01-.43.03-.83.05-.4.02-.76.06-.81.09-.04.03-.15.04-.24.02-.11-.02-.18 0-.21.07-.07.15-.18.13-.38-.05-.1-.09-.25-.16-.34-.16-.1 0-.18-.05-.2-.13-.02-.07-.08-.13-.13-.13-.36-.03-.96.03-1.16.1-.14.05-.35.07-.48.05-.19-.03-.22-.02-.22.1 0 .19-.25.17-.53-.04-.2-.15-.23-.2-.16-.34.04-.09.19-.24.34-.34.28-.18.54-.51.47-.61-.02-.03.05-.19.16-.36.15-.23.18-.36.15-.52-.04-.16-.02-.23.07-.25.19-.06.412.21.412.5 0 .22.025.26.25.34.364.13.87.06.96-.14.05-.12.12-.15.33-.15.33 0 .65.1.65.21 0 .05.1.12.224.16.2.06.29.05.58-.06.34-.13.35-.14.31-.36-.04-.2-.03-.22.126-.17.09.02.27.06.4.07.19.02.25.07.27.2.02.1.11.2.26.28.23.11.24.11.61-.06.42-.19.48-.25.48-.44 0-.18.52-.33.58-.16.15.39.33.53.55.42.08-.04.17-.04.27.01.34.15.34.15.22.42-.11.23-.11.27.02.51s.38.39.87.53c.12.03.11.07-.1.32-.26.33-.67.5-.87.36-.06-.04-.24-.08-.39-.09-.22-.01-.28-.04-.32-.16-.02-.09-.12-.16-.23-.19-.25-.06-.97 0-.97.08 0 .03-.12.1-.26.15-.14.05-.28.15-.31.22-.05.14-.17.17-.22.05m-315.79.22l-.02-.14c-.01-.12-.48-.09-.65.03-.19.14-.8.05-.95-.13-.07-.09-.19-.15-.3-.15-.1 0-.18-.02-.19-.04-.04-.34-.03-.45.06-.57.06-.09.1-.33.1-.59v-.45l.21.03c.11.02.304.06.42.09.31.09.37.03.32-.29-.06-.3 0-.35.45-.35.23 0 .26.03.42.36.22.45.45.53.72.23.17-.19.22-.2.66-.2.36 0 .496-.03.59-.12.07-.07.2-.17.3-.23.15-.09.18-.17.18-.41 0-.23.03-.3.11-.3s.12.08.14.24c.02.19.07.26.25.34.12.05.27.17.34.25.1.13.184.16.45.16.37 0 .4-.03.18-.22-.18-.16-.12-.22.28-.33.19-.06.26-.05.34.02.08.08.08.13.01.22-.13.18-.12.21.28.46l.37.24.08-.19c.08-.19.26-.25.36-.11.04.04-.02.12-.14.2l-.19.12.27.21c.15.12.25.25.23.3-.02.04-.19.09-.4.11-.34.02-.37.04-.4.2-.02.13-.09.2-.276.263-.14.05-.29.15-.34.225-.06.09-.16.13-.35.13-.15 0-.26-.03-.26-.06s-.1-.1-.22-.15c-.19-.08-.25-.08-.46 0-.14.05-.43.08-.65.08-.22 0-.42.03-.45.07-.02.04-.31.066-.65.066-.54 0-.62.01-.78.15-.11.087-.19.187-.19.22 0 .08-.22.1-.24.02zm38.13.5c0-.08-.08-.16-.19-.2-.15-.06-.19-.12-.17-.24.02-.14.07-.17.36-.22.19-.03.46-.08.61-.11l.27-.06-.01-.78c0-.53.03-.83.09-.93.11-.16.32-.2.33-.06l.03.14c.01.03.03.15.03.26.01.18.06.22.45.37.7.27.79.27 1.06 0 .12-.13.25-.32.27-.42.03-.1.11-.24.2-.31.27-.23.51 0 .27.26-.12.14-.06.43.1.48.06.02.22.11.34.19.15.1.29.15.45.13l.23-.02-.02-.5c-.02-.35.01-.52.07-.55.09-.05.1-.46.01-.71-.03-.09.01-.11.21-.11.34 0 .49-.11.52-.38.06-.52.39-.09.49.62l.05.34.44.01.62.02c.12 0 .17-.04.19-.14.03-.19.34-.29.74-.24.37.04.68.23.594.35-.06.07-.115.07-.73-.04-.15-.03-.23 0-.32.11-.104.13-.105.17-.02.28.086.11.19.13.586.13.69 0 .79.043.87.36.06.25.09.28.31.29.23.02.24.01.24-.17 0-.39.4-.31.41.08 0 .18.05.23.29.33.31.13.38.34.16.49-.18.13-.25.33-.17.47.05.08.04.14-.01.19-.1.09-.29-.04-.32-.23-.02-.11-.07-.13-.24-.12-.12.01-.29-.02-.39-.07-.13-.08-.19-.08-.25-.02-.08.09-.52.1-.9.02-.19-.04-.3-.02-.457.07-.11.06-.4.13-.65.16-.25.02-.58.07-.74.1-.24.06-.28.05-.25-.03.03-.06.01-.08-.08-.06-.07.02-.29.06-.49.08-.22.03-.36.08-.36.13 0 .09-.22.22-.37.22-.04 0-.06-.06-.04-.14.04-.14.03-.14-.59-.14-.65.01-.82.04-.8.173.03.19-.01.3-.12.3-.07 0-.11-.064-.11-.19v-.19h-.51c-.28 0-.56-.03-.62-.06-.06-.03-.14-.03-.19 0-.04.03-.34.06-.67.08-.53.02-.61.04-.77.192-.21.21-.33.23-.33.05z" fill="#54472E"/></g><path d="M132.523 264.68l38.57-23.343c7.44 13.193 14.21 24.353 30.447 24.353 15.563 0 25.373-6.087 25.373-29.767V74.883h47.364v161.714c0 49.056-28.754 71.386-70.707 71.386-37.89 0-59.883-19.623-71.047-43.303zm167.47-5.077l38.567-22.33c10.15 16.58 23.343 28.76 46.687 28.76 19.626 0 32.14-9.813 32.14-23.346 0-16.237-12.857-21.99-34.507-31.46l-11.84-5.077c-34.17-14.547-56.84-32.817-56.84-71.383 0-35.524 27.067-62.59 69.357-62.59 30.11 0 51.763 10.49 67.323 37.893l-36.877 23.68c-8.12-14.547-16.913-20.297-30.446-20.297-13.87 0-22.667 8.797-22.667 20.297 0 14.21 8.797 19.963 29.093 28.76l11.84 5.073c40.26 17.257 62.927 34.847 62.927 74.427 0 42.63-33.493 65.973-78.487 65.973-43.983 0-72.4-20.973-86.27-48.38z" fill="#513F26" fill-rule="nonzero"/><path d="M53.805 108l8.433-26.016-22.213-16.04h27.56L76.103 40l8.518 25.945h27.56l-22.21 16.04L98.4 108 76.11 91.96l-21.784 15.687-.514.352zM0 419.79h505.88v85H0z" fill="#B71234" fill-rule="nonzero"/></svg>
