<?xml version="1.0" standalone="no"?>
<!DOCTYPE svg PUBLIC "-//W3C//DTD SVG 1.1//EN" "http://www.w3.org/Graphics/SVG/1.1/DTD/svg11.dtd">
<svg width="505px" height="505px" version="1.1" xmlns="http://www.w3.org/2000/svg" xmlns:xlink="http://www.w3.org/1999/xlink" xml:space="preserve" style="fill-rule:evenodd;clip-rule:evenodd;stroke-linejoin:round;stroke-miterlimit:1.41421;">
    <g>
        <rect x="0" y="0.5" width="504.67" height="504.5" style="fill:rgb(246,222,30);fill-rule:nonzero;"/>
        <g>
            <g>
                <g>
                    <path d="M46.5936,379.624L58.2059,379.624C58.2059,379.887 58.1922,380.239 58.1648,380.68C58.1373,381.122 58.1236,381.438 58.1236,381.629C58.1236,383.754 58.4118,385.234 58.9883,386.069C59.5648,386.905 60.5394,387.323 61.912,387.323C63.3121,387.323 64.3003,387.012 64.8768,386.392C65.4533,385.771 65.7416,384.697 65.7416,383.169C65.7416,381.211 65.4327,379.702 64.8151,378.639C64.1974,377.577 62.8179,376.246 60.6766,374.647C57.602,372.379 55.3921,370.708 54.0469,369.634C52.7018,368.559 51.6723,367.664 50.9585,366.948C49.8055,365.85 48.9682,364.967 48.4467,364.298C47.9251,363.63 47.527,362.974 47.2525,362.329C46.9505,361.661 46.7378,360.813 46.6142,359.787C46.4907,358.76 46.4289,357.411 46.4289,355.74C46.4289,351.038 47.6986,347.66 50.2379,345.607C52.7773,343.554 56.9569,342.528 62.7767,342.528C67.8829,342.528 71.5889,343.614 73.8949,345.786C76.2009,347.958 77.3539,351.444 77.3539,356.242C77.3539,356.815 77.3127,357.686 77.2303,358.856C77.2029,359.023 77.1892,359.154 77.1892,359.25L65.4533,359.25L65.4533,357.567C65.4533,355.418 65.2131,353.962 64.7327,353.198C64.2523,352.434 63.367,352.052 62.0767,352.052C60.759,352.052 59.8119,352.369 59.2354,353.001C58.6589,353.634 58.3706,354.714 58.3706,356.242C58.3706,358.724 59.8805,361.04 62.9003,363.188C63.4219,363.57 63.8336,363.869 64.1356,364.084C66.7436,366.041 68.8849,367.694 70.5595,369.043C72.234,370.392 73.3184,371.352 73.8125,371.925C74.8832,373.167 75.6724,374.235 76.1803,375.13C76.6882,376.025 77.1068,376.986 77.4362,378.013C77.5186,378.299 77.5804,378.878 77.6215,379.749C77.6627,380.621 77.6833,381.784 77.6833,383.24C77.6833,388.349 76.544,391.9 74.2655,393.893C71.987,395.886 68.0201,396.883 62.365,396.883C56.7098,396.883 52.64,395.839 50.1556,393.75C47.6711,391.661 46.4289,388.253 46.4289,383.527C46.4289,382.978 46.4564,382.023 46.5113,380.662C46.5387,380.233 46.5662,379.887 46.5936,379.624Z" style="fill:rgb(81,63,38);"/>
                    <path d="M82.9311,395.845L93.2257,343.566L109.326,343.566L119.621,395.845L107.226,395.845L105.867,386.678L96.6847,386.678L95.3258,395.845L82.9311,395.845ZM97.9612,377.153L104.509,377.153L101.297,352.518L97.9612,377.153Z" style="fill:rgb(81,63,38);"/>
                    <path d="M156.741,383.24C156.741,388.349 155.608,391.9 153.344,393.893C151.079,395.886 147.009,396.883 141.134,396.883C135.232,396.883 131.155,395.892 128.904,393.911C126.653,391.93 125.528,388.373 125.528,383.24L125.528,356.17C125.528,351.014 126.653,347.451 128.904,345.482C131.155,343.512 135.232,342.528 141.134,342.528C147.009,342.528 151.079,343.524 153.344,345.517C155.608,347.511 156.741,351.062 156.741,356.17L156.741,362.043L144.84,362.043L144.84,356.385C144.84,354.714 144.545,353.514 143.955,352.786C143.365,352.058 142.397,351.694 141.052,351.694C139.762,351.694 138.835,352.046 138.272,352.751C137.71,353.455 137.428,354.619 137.428,356.242L137.428,383.169C137.428,384.84 137.696,386.016 138.231,386.696C138.767,387.376 139.707,387.716 141.052,387.716C142.425,387.716 143.399,387.34 143.976,386.588C144.552,385.837 144.84,384.541 144.84,382.703L144.84,376.545L156.741,376.545L156.741,383.24Z" style="fill:rgb(81,63,38);"/>
                    <path d="M177.719,364.37C177.938,364.394 178.185,364.412 178.46,364.424C178.735,364.436 179.133,364.442 179.654,364.442C181.411,364.442 182.708,364.155 183.546,363.582C184.383,363.009 184.801,362.102 184.801,360.861L184.801,356.17C184.801,354.977 184.369,354.093 183.504,353.52C182.64,352.948 181.329,352.661 179.572,352.661C179.078,352.661 178.7,352.667 178.439,352.679C178.179,352.691 177.938,352.709 177.719,352.733L177.719,364.37ZM185.625,393.41L185.625,377.296C185.625,375.912 185.179,374.879 184.287,374.199C183.395,373.519 182.015,373.179 180.148,373.179C179.901,373.179 179.606,373.191 179.263,373.214C178.92,373.238 178.405,373.286 177.719,373.358L177.719,395.845L166.23,395.845L166.23,343.566L182.454,343.566C186.847,343.566 190.292,344.413 192.79,346.108C195.288,347.803 196.537,350.131 196.537,353.091L196.537,360.718C196.537,362.985 195.81,364.8 194.355,366.16C192.9,367.521 190.868,368.273 188.26,368.416C191.363,368.631 193.655,369.496 195.137,371.012C196.62,372.528 197.361,374.79 197.361,377.798L197.361,393.41C197.471,393.863 197.656,394.287 197.917,394.681C198.178,395.075 198.528,395.463 198.967,395.845L187.231,395.845C186.682,395.582 186.277,395.26 186.016,394.878C185.755,394.496 185.625,394.007 185.625,393.41Z" style="fill:rgb(81,63,38);"/>
                    <path d="M203.268,395.845L213.562,343.566L229.663,343.566L239.957,395.845L227.563,395.845L226.204,386.678L217.021,386.678L215.662,395.845L203.268,395.845ZM218.298,377.153L224.845,377.153L221.633,352.518L218.298,377.153Z" style="fill:rgb(81,63,38);"/>
                    <path d="M277.077,395.845L265.341,395.845L257.147,351.408L257.6,395.845L246.605,395.845L246.605,343.566L265.341,343.566L267.112,355.311L267.565,358.283C269.404,370.099 270.626,378.633 271.23,383.885C271.697,380.042 272.28,375.679 272.98,370.797C273.68,365.916 274.456,360.742 275.307,355.275L277.077,343.566L295.772,343.566L295.772,395.845L284.819,395.845L285.231,351.408L277.077,395.845Z" style="fill:rgb(81,63,38);"/>
                    <path d="M331.821,343.566L331.821,353.091L318.315,353.091L318.315,363.797L331.286,363.797L331.286,373.322L318.315,373.322L318.315,386.32L331.821,386.32L331.821,395.845L306.579,395.845L306.579,343.566L331.821,343.566Z" style="fill:rgb(81,63,38);"/>
                    <path d="M365.029,395.845C362.778,388.612 360.651,381.474 358.647,374.432C356.643,367.39 354.749,360.395 352.964,353.449L353.294,395.845L342.505,395.845L342.505,343.566L358.729,343.566C361.145,351.491 363.362,358.999 365.379,366.089C367.397,373.179 369.188,379.803 370.753,385.962L370.424,343.566L381.377,343.566L381.377,395.845L365.029,395.845Z" style="fill:rgb(81,63,38);"/>
                    <path d="M397.949,395.845L397.949,353.234L389.096,353.234L389.096,343.566L418.579,343.566L418.579,353.234L409.808,353.234L409.808,395.845L397.949,395.845Z" style="fill:rgb(81,63,38);"/>
                    <path d="M437.334,356.385L437.334,383.026C437.334,384.649 437.622,385.837 438.198,386.588C438.775,387.34 439.695,387.716 440.957,387.716C442.44,387.716 443.469,387.37 444.046,386.678C444.622,385.986 444.911,384.613 444.911,382.56L444.911,356.457C444.911,354.619 444.629,353.365 444.066,352.697C443.504,352.028 442.522,351.694 441.122,351.694C439.777,351.694 438.809,352.058 438.219,352.786C437.629,353.514 437.334,354.714 437.334,356.385ZM456.646,383.24C456.646,388.397 455.521,391.96 453.27,393.929C451.019,395.898 446.969,396.883 441.122,396.883C435.22,396.883 431.143,395.892 428.892,393.911C426.641,391.93 425.515,388.373 425.515,383.24L425.515,356.17C425.515,351.014 426.641,347.451 428.892,345.482C431.143,343.512 435.22,342.528 441.122,342.528C446.969,342.528 451.019,343.512 453.27,345.482C455.521,347.451 456.646,351.014 456.646,356.17L456.646,383.24Z" style="fill:rgb(81,63,38);"/>
                </g>
            </g>
        </g>
        <g>
            <g>
                <path d="M224.973,279.791C224.492,279.813 224.285,280.803 223.854,281.104C222.961,281.999 221.245,280.52 220.907,282.083C220.639,283.035 219.112,283.238 218.394,282.95C218.293,280.993 216.677,282.288 215.721,282.861C214.88,283.892 213.438,282.712 212.476,282.883C211.829,282.646 210.77,282.782 211.105,281.86C211.864,281.306 210.926,279.69 210.374,280.748C209.617,280.896 210.116,281.365 209.484,281.438C208.267,282.513 209.362,279.741 207.953,280.348C207.556,281.779 205.725,281.98 204.321,281.927C203.185,282.037 202.142,282.604 200.962,282.439C200.885,282.436 200.843,282.471 200.802,282.505L195.593,282.661L189.608,283.995C186.304,284.727 183.384,285.352 183.12,285.374C182.607,285.416 182.294,285.488 181.59,285.73C181.276,285.838 140.912,294.804 140.742,294.804L139.257,294.182L138.754,294.093L138.092,293.959L136.721,293.67L135.671,292.98L135.373,292.602L134.597,292.602L133.728,293.047L133.066,292.824L131.969,292.936L130.576,293.47L129.867,293.314L128.999,293.403L128.519,293.648L128.2,293.448L128.268,292.892L128.177,291.98L127.422,291.957L126.852,292.691L125.846,293.781L125.161,293.803L124.59,293.314L124.065,292.914L123.54,293.025L123.357,293.27L121.735,294.804L121.575,294.96L120.912,295.138L120.204,294.893L119.793,294.648L119.107,295.293L118.582,296.361L118.011,296.806L116.548,297.206L116,296.984L115.589,296.272L114.036,296.539L113.601,296.872L113.236,296.962L112.368,296.027L111.911,295.471L111.317,295.361L110.86,295.538L110.083,295.828L108.895,295.716L108.713,296.428L108.872,296.717L109.284,297.851L108.895,298.43L107.822,298.785L107.639,299.252L107.227,299.719L106.611,299.876L105.651,300.053L104.783,300.32L104.235,300.542L102.796,301.076L101.905,301.076L101.494,300.92L100.831,301.21L99.8718,301.366L99.2547,300.809L98.0214,299.898L97.3817,300.409L96.0336,301.966L94.7316,301.788L94.5027,300.943L93.9544,300.231L93.4061,300.586L93.1093,301.099L92.675,301.054L92.4469,300.297L92.4009,299.719L91.9666,299.719L91.373,300.231L90.8934,301.076L90.5279,301.276L90.1163,300.854L89.7968,299.898L89.6367,299.274L88.9509,299.164L88.8142,299.898L88.6768,300.365L88.5854,300.787L88.3346,302.1L87.9004,302.544L87.5122,302.344L87.238,301.944L86.7124,300.698L86.0727,300.698L85.8672,301.699L85.2729,302.722L83.3311,304.924L81.7783,305.169L81.0925,303.456L80.7957,303.367L80.5676,303.789L80.1107,305.279L79.425,305.436L78.3744,305.569L77.8488,305.925L77.3692,305.969L77.2317,305.569L76.8435,304.857L76.3179,305.457L76.0211,306.347L74.5362,307.325L73.028,307.393L69.8295,309.416L68.847,309.172L68.162,309.172L66.1741,310.239L65.0088,310.573L63.3639,311.062L62.4742,311.106L61.8798,310.929L60.6004,311.174L59.0015,311.685L56.0999,312.308L55.6203,312.33C54.5734,313.124 53.4658,313.587 52.2157,313.954C51.8552,313.955 51.1205,314.124 50.4567,314.376C49.9369,314.573 49.9062,314.597 49.863,314.888C49.7073,315.24 49.4529,315.575 49.5655,315.955C50.2966,316.484 52.3429,316.762 53.9066,316.734C54.0287,316.889 55.1275,316.889 55.3915,316.734C61.1772,316.775 65.8218,316.223 70.8808,317.045C71.9365,317.269 73.0602,317.37 73.3936,317.289C75.5195,317.299 77.6302,317.346 79.7452,317.423C80.3293,317.415 80.9273,317.383 81.5268,317.423C82.0554,317.407 83.4262,317.375 84.5644,317.356C87.0253,317.315 88.5949,317.244 88.7002,317.155C90.8327,318.032 92.9931,317.911 95.051,318.045C95.3003,318.165 96.3246,318.224 99.0033,318.29C99.5698,318.31 100.196,318.411 100.74,318.357C108.249,317.914 115.257,317.163 122.695,316.756C123.944,316.673 125.299,316.486 126.417,316.444C126.417,316.434 127.711,316.403 129.502,316.356C130.156,316.329 130.823,316.282 131.443,316.288C131.862,316.152 134.365,316.112 135.51,316.222C142.875,316.634 149.553,316.513 156.848,317.245C157.177,317.347 158.271,317.431 158.767,317.4C164.944,317.381 170.373,317.931 176.586,318.068C177.835,318.146 179.09,318.071 180.333,318.246C181.833,318.319 183.292,318.332 184.787,318.535C185.124,318.553 185.448,318.592 185.496,318.623C189.92,319.2 194.604,319.246 198.975,319.914C199.32,320.017 200.998,320.032 201.145,319.936C201.879,319.909 202.608,319.804 203.338,319.736C204.225,319.732 205.01,319.29 205.578,319.691C205.734,319.59 206.818,319.539 207.017,319.624C208.827,319.317 210.641,319.606 212.476,319.513C214.321,319.491 216.143,319.352 217.982,319.269C219.169,319.238 220.339,319.026 221.523,319.046C222.048,319.053 222.594,319.082 223.123,318.913C223.503,318.841 224.021,318.804 224.425,318.824C226.773,318.775 229.097,318.256 231.461,318.379C233.311,318.077 235.039,318.103 236.761,317.889C238.933,317.88 241.059,317.349 243.25,317.356C246.836,317.163 250.391,316.916 253.896,316.622C256.614,316.467 260.075,316.128 261.983,316.111C266.6,316.046 272.303,315.102 276.147,315.132C277.271,315.039 278.402,315.149 279.437,315.043C281.108,315.04 282.621,314.804 284.326,314.798C287.231,314.43 290.083,314.282 293.304,314.198C293.469,314.131 293.998,314.083 294.766,314.064C295.633,314.028 296.412,313.753 297.256,313.864C300.084,313.618 303.042,313.59 305.846,313.553C305.878,313.608 306.131,313.626 306.6,313.597C307.419,313.548 307.438,313.556 308.131,313.575C311.529,313.814 315.391,313.511 318.639,313.619C323.82,313.959 329.48,314.018 334.677,314.132C340.59,314.32 346.784,314.351 352.406,315.043C363.41,315.744 371.353,315.051 380.825,315.955C382,316.095 383.18,316.2 384.365,316.155C384.619,316.151 387.168,316.219 387.587,316.244C393.3,316.13 400.478,315.812 403.579,315.777C405.841,315.75 407.242,315.713 407.257,315.666C416.875,315.266 423.713,313.969 433.324,314.264C437.077,313.819 440.796,314.716 444.587,314.575C444.907,314.563 445.219,314.564 445.546,314.532C446.176,314.504 446.7,314.575 447.351,314.643C448.157,314.612 448.99,314.532 450.024,314.331C451.233,313.926 451.701,313.008 451.623,311.685C451.563,310.963 451.427,310.741 450.96,310.573C450.252,310.226 449.472,309.979 448.813,309.594C448.48,309.417 447.618,309.082 447.511,309.082C447.24,308.842 447.044,308.568 446.711,308.393C446.563,308.252 446.272,308.099 445.98,308.015C445.396,307.526 444.865,306.986 444.244,306.547C443.945,306.273 443.762,306.18 443.421,306.169C442.703,306.144 441.999,305.991 441.868,305.835C441.77,305.72 441.667,305.711 441.502,305.746C441.327,305.784 441.251,305.742 441.068,305.569C440.862,305.238 440.666,304.696 440.291,304.634C440.149,304.672 440.074,304.643 439.949,304.456C439.779,304.059 439.688,303.653 439.332,303.345C438.985,303.134 438.663,302.818 438.235,302.721C438.205,302.624 437.722,302.502 437.367,302.499C437.142,302.498 437.072,302.445 436.865,302.121C436.733,301.917 436.591,301.557 436.545,301.32C436.424,300.713 436.292,300.473 435.996,300.341C435.659,300.194 435.564,299.879 435.106,300.075C434.901,300.085 434.01,300.421 433.803,300.564C433.672,300.656 433.452,300.675 432.821,300.653C432.375,300.637 431.975,300.635 431.93,300.631C431.536,300.107 431.161,299.515 430.605,299.119C430.546,299.119 430.331,298.957 430.125,298.762C429.796,298.453 429.716,298.429 429.417,298.429C428.943,298.011 428.58,297.703 428.435,297.073C428.277,296.933 427.247,296.913 427.247,297.05C427.247,297.297 426.507,297.412 426.242,297.206C426.166,297.147 426.055,296.995 425.99,296.85C425.903,296.655 425.793,296.565 425.602,296.516C425.459,296.48 425.188,296.399 424.985,296.339C424.504,296.196 424.113,296.239 423.82,296.472C423.69,296.575 423.444,296.748 423.271,296.85C423.134,297.016 422.925,297.127 422.86,297.34C422.69,297.399 422.197,297.265 422.129,297.139C421.962,296.977 421.73,296.856 421.626,296.65C421.626,296.509 421.365,296.541 420.987,296.739C420.656,296.912 420.594,296.89 420.438,296.516C420.326,296.247 420.312,296.122 420.37,295.96C420.54,295.487 420.399,294.767 420.119,294.693C419.908,294.637 419.319,295.028 419.319,295.226C418.776,294.882 418.364,294.363 418.268,293.047C418.213,292.914 418.132,292.744 418.108,292.669C418.04,292.448 417.792,292.522 417.514,292.824C417.177,293.18 416.827,293.544 416.6,293.981C416.491,294.246 416.327,294.314 416.098,294.203C415.956,294.134 415.934,294.028 415.892,293.67C415.852,293.327 415.802,293.21 415.664,293.114C415.498,292.998 415.442,293.013 415.047,293.202C414.632,293.895 414.103,294.936 413.174,294.448C413.008,293.985 413.16,293.172 413.493,292.669L413.698,292.335L413.493,291.802C413.237,291.468 413.125,290.917 412.74,290.89C412.355,290.863 411.842,291.235 411.621,291.601C411.433,291.787 411.413,292.207 411.049,292.157C411.049,292.318 410.758,292.214 410.501,291.957C410.349,291.806 410.186,291.688 410.135,291.69C409.921,291.696 409.453,292.125 409.313,292.446C409.205,292.693 409.092,292.794 408.947,292.824C408.744,292.986 408.504,293.108 408.331,293.313C408.2,293.144 407.926,293.004 407.874,292.735C407.689,292.487 407.651,292.088 407.805,291.957C407.962,291.823 408.025,291.402 407.897,291.29C407.695,290.918 407.674,290.489 407.166,290.356C406.964,290.356 406.815,290.073 406.731,289.51C406.693,289.257 406.705,289.086 406.823,288.821C406.671,288.127 406.592,287.523 405.909,287.131C405.779,287.131 405.475,287.602 405.338,288.02C405.138,288.205 405.029,288.49 404.721,288.599C404.377,288.964 404.047,288.771 403.784,288.064C403.579,287.515 403.43,287.311 403.167,287.242C402.958,287.186 402.792,287.29 402.642,287.598C402.56,287.764 402.563,287.957 402.619,288.577C402.658,289.005 402.669,289.47 402.642,289.6C402.552,290.286 402.541,291.035 402.139,291.624C401.886,291.821 401.207,291.335 401.203,290.956C401.201,290.834 401.117,290.706 400.951,290.578C400.607,290.116 400.361,289.707 399.741,289.6C399.351,289.538 399.083,289.371 398.964,289.132C398.858,288.923 398.83,288.323 398.918,288.265C399.032,287.927 399.2,287.607 399.078,287.265C399.015,287.096 398.896,286.925 398.827,286.886C398.467,287.088 398.034,287.24 397.753,287.687C397.346,287.923 397.089,288.154 396.542,288.064L395.811,288.064L395.4,287.553C394.77,286.793 394.576,286.908 394.554,288.064C394.285,288.681 393.998,289.056 393.435,288.643C393.435,288.456 393.429,288.458 393.206,288.51C393.075,288.54 392.869,288.623 392.749,288.688C392.63,288.752 392.377,288.809 392.201,288.821C392.025,288.833 391.827,288.879 391.767,288.932C391.707,288.985 391.585,289.004 391.493,288.977C391.401,288.95 384.178,288.445 375.433,287.843L359.533,286.752L359.35,286.509C359.086,286.18 358.846,286.128 358.687,286.353C358.589,286.49 358.52,286.505 358.367,286.463C358.167,286.411 358.087,286.363 357.75,285.908L356.837,285.552L355.695,285.641L355.557,285.396L355.421,285.174L355.078,284.885L354.233,285.307L353.867,285.595L353.547,285.595L352.884,285.107L352.153,284.595L351.559,284.995L350.736,285.063L349.937,283.906L349,283.706L348.863,283.972L348.407,284.528L348.086,284.706L347.355,284.239L346.327,284.551L345.277,284.062L344.522,283.238L343.86,282.994L343.084,283.238L342.512,282.838L342.032,282.127L340.913,283.172L340.387,282.905L339.77,282.66L339.222,282.994L338.514,284.35L336.024,284.573L335.818,283.15L335.635,282.504L335.247,282.927L334.63,282.927L332.575,282.682L332.277,281.926L331.981,281.126L331.41,280.859L330.358,282.238L329.97,282.483L329.605,282.438L329.285,281.971L328.737,281.615L327.96,282.082L327.206,282.905L326.863,283.194L326.063,283.372L325.904,282.949L325.858,282.238L325.698,281.238L325.149,281.126L324.236,281.926L322.705,283.127L322.637,282.394L322.202,281.415L321.631,281.792L321.22,282.616L320.421,282.238L319.758,281.571L319.416,281.415L319.073,281.526L317.725,282.905L316.308,283.573L315.76,283.772C315.728,283.766 295.184,286.522 283.446,286.695C271.71,286.868 272.98,284.395 272.925,284.395C272.844,284.395 272.844,284.262 272.879,283.728C272.915,283.185 272.882,283.038 272.787,282.927C272.678,282.671 272.551,282.416 272.445,282.171C272.37,282.091 272.308,281.991 272.308,281.926C272.308,281.862 272.242,281.798 272.171,281.792C271.826,281.765 271.357,281.815 271.257,281.904C269.015,281.569 268.111,283.083 266.711,283.439C266.46,283.439 266.358,283.472 266.322,283.573C266.295,283.646 266.151,283.842 266.003,283.994C265.854,284.146 265.721,284.32 265.706,284.373C265.683,284.446 260.241,284.18 242.083,283.217C242.083,283.217 241.094,283.274 240.096,283.328C240.102,283.285 240.103,283.228 240.119,283.194C239.259,283.492 238.68,281.866 237.697,282.349C236.616,283.067 236.187,282.018 236.007,281.192C235.262,281.434 234.145,282.529 233.082,282.105C232.077,281.166 230.706,282.83 229.472,282.504C229.193,282.293 228.545,280.833 228.239,281.459C226.971,282.415 227.927,279.78 226.639,280.014C226.503,280.694 225.644,281.218 225.566,280.147C225.329,279.88 225.133,279.784 224.972,279.791L224.973,279.791Z" style="fill:rgb(88,69,40);fill-rule:nonzero;"/>
                <path d="M225.202,283.652C222.669,284.069 220.912,286.608 218.188,285.868C215.867,285.292 213.711,286.827 211.267,285.571C208.839,284.019 206.15,284.436 203.475,285.137C187.67,286.154 172.459,291.206 156.938,294.275C151.059,295.316 145.037,297.406 139.141,297.359C136.271,296.121 133.104,295.228 130.162,296.491C126.036,295.725 122.241,297.102 118.922,299.439C116.648,301.363 113.363,298.472 111.474,299.781C108.698,303.11 103.777,304.08 99.6396,304.122C97.9493,303.395 96.4901,305.821 94.5447,304.67C91.7469,303.059 89.0397,304.931 86.3661,305.79C83.436,309.096 78.3857,307.796 74.6688,310.131C72.3711,311.472 70.3094,312.511 67.7009,312.621C64.2027,313.663 64.9433,313.872 68.386,313.809C77.5018,315.205 86.7982,313.606 95.868,315.211C111.504,315.759 127.016,312.213 142.68,313.555C160.86,314.67 179.112,314.735 197.216,316.802C225.089,316.83 252.811,313.191 280.645,311.983C307.779,309.441 335.019,311.214 362.166,312.415C377.507,312.625 392.844,313.962 408.173,312.63C420.822,311.755 433.548,310.719 446.194,311.57C443.528,308.81 439.197,309.051 437.169,305.538C435.174,305.339 434.687,302.808 432.555,303.619C429.473,303.351 428.397,299.668 425.198,299.872C423.706,299.631 421.796,300.853 420.149,299.667C417.96,299.337 417.512,295.72 415.146,297.154C413.241,298.088 410.85,296.95 410.188,295.509C409.301,297.737 407.774,297.163 406.373,295.737C405.073,294.726 405.183,291.115 403.86,293.818C401.836,295.911 399.632,293.696 398.239,292.151C395.752,289.655 392.05,292.899 388.918,291.785C377.527,290.43 365.616,291.064 354.581,288.449C351.608,288.294 348.788,287.352 345.762,287.261C343.599,286.32 341.049,285.039 339.159,287.216C335.397,289.276 332.906,283.923 329.267,285.365C326.866,286.298 324.512,285.792 322.345,286.896C320.428,287.164 319.64,283.652 318.049,285.959C304.904,288.711 291.272,289.569 277.817,289.546C274.657,289.44 270.671,287.798 269.776,285.045C267.653,287.037 264.977,287.923 262.077,287.208C253.847,286.902 245.624,285.879 237.379,286.393C237.085,284.37 233.8,285.335 232.102,284.954C229.748,286.072 227.431,284.758 225.316,283.583L225.202,283.652Z" style="fill:rgb(0,133,66);fill-rule:nonzero;"/>
                <path d="M199.364,298.256C199.344,298.211 199.399,298.108 199.487,298.028C199.575,297.949 199.648,297.85 199.648,297.809C199.648,297.768 199.767,297.693 199.912,297.641C200.145,297.559 200.175,297.522 200.158,297.344C200.132,297.078 200.298,297.029 200.364,297.284C200.412,297.465 200.436,297.478 200.692,297.456C200.905,297.437 201,297.388 201.103,297.238C201.226,297.06 201.228,297.021 201.126,296.771C201.065,296.62 200.962,296.472 200.898,296.442C200.833,296.411 200.78,296.34 200.78,296.284C200.78,296.198 200.855,296.19 201.302,296.227C201.88,296.276 201.851,296.294 201.955,295.801C201.982,295.67 202.044,295.561 202.09,295.561C202.223,295.562 202.668,295.807 202.668,295.88C202.668,295.916 202.786,295.945 202.93,295.945C203.242,295.945 203.329,295.835 203.328,295.448C203.327,295.115 203.37,295.07 203.602,295.175C203.887,295.304 204.061,295.18 204.17,294.767C204.222,294.572 204.289,294.412 204.321,294.412C204.352,294.412 204.456,294.483 204.551,294.569C204.647,294.654 204.831,294.734 204.961,294.744C205.156,294.76 205.203,294.797 205.237,294.955C205.268,295.103 205.314,295.143 205.437,295.133C205.685,295.111 205.725,295.358 205.488,295.45C205.349,295.503 205.311,295.557 205.342,295.654C205.365,295.726 205.384,295.821 205.385,295.865C205.387,296.038 205.686,295.934 205.89,295.69C206.137,295.395 206.326,295.321 206.505,295.45C206.574,295.501 206.69,295.56 206.763,295.582C206.836,295.604 206.896,295.66 206.896,295.708C206.896,295.756 206.977,295.86 207.077,295.939L207.258,296.083L207.549,295.927C207.82,295.781 207.84,295.751 207.84,295.463L207.84,295.156L208.272,295.013L208.704,294.871L208.966,295.074C209.203,295.258 209.232,295.319 209.275,295.722C209.3,295.968 209.354,296.197 209.395,296.231C209.435,296.265 209.577,296.298 209.71,296.302C210.436,296.325 210.863,296.396 210.955,296.508C211.041,296.615 211.095,296.62 211.55,296.556C212.066,296.485 212.093,296.467 212.26,296.086C212.32,295.949 212.395,295.882 212.475,295.895C212.619,295.918 212.681,296.186 212.564,296.284C212.413,296.412 212.477,296.519 212.703,296.519C212.94,296.519 213.388,296.692 213.486,296.823C213.519,296.867 213.595,296.902 213.655,296.902C213.818,296.902 214.016,297.199 213.966,297.365C213.902,297.575 213.559,297.863 213.424,297.819C213.362,297.799 213.269,297.813 213.215,297.849C213.052,297.964 212.913,297.835 212.97,297.619C213.03,297.387 212.895,297.285 212.749,297.453C212.662,297.554 212.624,297.559 212.469,297.488C212.319,297.42 212.251,297.423 212.064,297.505C211.942,297.56 211.801,297.604 211.752,297.604C211.703,297.605 211.643,297.657 211.62,297.719C211.585,297.812 211.48,297.835 211.053,297.845C210.686,297.855 210.454,297.898 210.271,297.989C209.889,298.179 209.663,298.077 209.84,297.796C209.919,297.67 209.814,297.549 209.728,297.668C209.702,297.703 209.567,297.733 209.429,297.733C209.275,297.733 209.16,297.77 209.133,297.828C209.076,297.955 208.632,297.959 208.632,297.833C208.632,297.771 208.505,297.728 208.231,297.699C207.614,297.634 207.47,297.668 207.424,297.892C207.39,298.065 207.355,298.086 207.075,298.103C206.866,298.116 206.723,298.089 206.643,298.021C206.564,297.954 206.36,297.914 206.034,297.904C205.678,297.891 205.502,297.853 205.386,297.765C205.262,297.67 205.197,297.658 205.096,297.712C204.843,297.845 204.502,297.875 204.454,297.768C204.397,297.641 204.207,297.639 204.151,297.764C204.126,297.819 204.012,297.86 203.883,297.86C203.759,297.86 203.639,297.886 203.615,297.919C203.591,297.951 203.169,297.978 202.677,297.978C202.007,297.979 201.679,298.009 201.367,298.099C201.016,298.199 200.939,298.204 200.883,298.129C200.829,298.057 200.78,298.068 200.625,298.19C200.461,298.319 200.355,298.341 199.918,298.34C199.565,298.34 199.39,298.312 199.364,298.255L199.364,298.256ZM355.077,300.501C355.049,300.477 355.025,300.404 355.025,300.34C355.025,300.199 355.034,300.199 354.698,300.318C354.509,300.385 354.373,300.396 354.245,300.354C353.924,300.251 353.196,300.282 353.088,300.403C353,300.5 352.991,300.498 352.989,300.373C352.985,300.181 352.529,300.069 352.341,300.215C352.302,300.245 352.176,300.289 352.063,300.311C351.899,300.343 351.867,300.332 351.902,300.254C351.971,300.102 351.785,299.968 351.505,299.968C351.365,299.968 351.25,299.94 351.25,299.907C351.25,299.871 351.094,299.861 350.879,299.883C350.676,299.903 350.404,299.889 350.275,299.851C350.093,299.797 349.981,299.804 349.764,299.881C349.602,299.938 349.393,299.963 349.262,299.941C349.14,299.92 348.994,299.934 348.939,299.973C348.838,300.044 348.666,300.036 347.4,299.902C346.682,299.826 346.296,299.81 345.852,299.837C345.686,299.847 345.278,299.82 344.946,299.776C344.056,299.659 342.995,299.67 342.422,299.8C341.868,299.927 341.586,299.897 341.586,299.713C341.586,299.553 341.323,299.434 341.082,299.486C340.93,299.518 340.9,299.504 340.92,299.411C340.939,299.329 341.018,299.296 341.197,299.295C341.37,299.294 341.489,299.246 341.582,299.142C341.71,298.998 341.748,298.992 342.343,299.027C343.121,299.071 343.322,299.016 343.322,298.759C343.322,298.516 343.226,298.47 342.719,298.468C342.4,298.467 342.303,298.445 342.303,298.371C342.303,298.301 342.424,298.266 342.757,298.239C343.006,298.217 343.345,298.147 343.511,298.081C343.677,298.016 344.034,297.915 344.304,297.858C344.658,297.784 344.803,297.723 344.821,297.639C344.843,297.544 344.813,297.532 344.651,297.566C344.467,297.605 344.456,297.595 344.473,297.399C344.49,297.222 344.468,297.19 344.33,297.19C344.106,297.19 344.051,297.128 344.189,297.032C344.252,296.987 344.304,296.898 344.304,296.833C344.304,296.657 344.69,296.519 345.189,296.519L345.627,296.519L345.631,296.887C345.636,297.388 345.85,297.709 346.16,297.679C346.281,297.667 346.475,297.582 346.59,297.489C346.706,297.397 346.859,297.318 346.93,297.315C347.001,297.311 347.254,297.302 347.492,297.297C347.897,297.287 347.928,297.274 347.974,297.111C348.001,297.013 348.074,296.885 348.137,296.825C348.221,296.743 348.237,296.634 348.201,296.404C348.16,296.143 348.177,296.075 348.302,295.98C348.456,295.862 348.834,295.884 348.834,296.011C348.834,296.046 348.958,296.232 349.109,296.426C349.311,296.681 349.395,296.867 349.422,297.111C349.463,297.483 349.52,297.539 349.866,297.54C350.013,297.54 350.197,297.606 350.343,297.71C350.498,297.82 350.676,297.88 350.858,297.886C351.125,297.892 351.138,297.882 351.174,297.651C351.222,297.35 351.336,297.334 351.448,297.614C351.512,297.777 351.638,297.879 351.973,298.04C352.386,298.238 352.421,298.244 352.511,298.139C352.565,298.078 352.609,297.981 352.609,297.923C352.609,297.805 352.306,297.54 352.17,297.54C352.12,297.54 352.081,297.483 352.081,297.413C352.081,297.197 352.383,297.26 352.693,297.54C352.847,297.681 353.063,297.824 353.172,297.859C353.507,297.967 353.731,298.617 353.477,298.738C353.411,298.769 353.355,298.9 353.345,299.044C353.326,299.295 353.328,299.296 353.583,299.279C353.754,299.268 353.894,299.303 353.999,299.384C354.112,299.471 354.226,299.497 354.402,299.474C354.621,299.446 354.647,299.42 354.647,299.232C354.647,299.05 354.688,299.006 354.962,298.891C355.473,298.677 355.57,298.842 355.125,299.167C354.79,299.411 354.82,299.55 355.221,299.613C355.463,299.651 355.526,299.637 355.633,299.516C355.713,299.425 355.806,299.387 355.884,299.413C356.039,299.462 356.045,299.767 355.893,299.817C355.727,299.87 355.754,299.96 355.962,300.04C356.148,300.112 356.233,300.254 356.176,300.398C356.127,300.522 355.945,300.493 355.853,300.346C355.74,300.169 355.365,300.196 355.365,300.381C355.365,300.508 355.178,300.587 355.077,300.501M253.932,303.771C253.932,303.661 252.917,303.61 252.28,303.689C251.831,303.744 251.75,303.722 251.891,303.577C252.049,303.416 251.932,303.285 251.669,303.328C251.49,303.358 251.44,303.345 251.44,303.266C251.44,303.208 251.522,303.145 251.622,303.124C251.721,303.102 251.82,303.032 251.84,302.967C251.865,302.883 251.923,302.859 252.035,302.884C252.217,302.924 252.53,302.774 252.645,302.59C252.748,302.426 252.668,302.265 252.483,302.265C252.225,302.265 252.377,302.116 252.878,301.876C253.198,301.724 253.392,301.583 253.454,301.461C253.58,301.211 253.577,301.02 253.444,300.927C253.315,300.837 253.356,300.59 253.567,300.167C253.685,299.933 253.724,299.902 253.819,299.968C253.881,300.011 253.932,300.083 253.932,300.127C253.932,300.171 253.985,300.245 254.051,300.291C254.145,300.357 254.202,300.358 254.314,300.299C254.661,300.116 254.838,300.321 254.521,300.539L254.356,300.652L254.521,300.727C254.612,300.769 254.686,300.857 254.686,300.922C254.686,300.989 254.733,301.083 254.789,301.132C254.847,301.179 254.945,301.303 255.009,301.408C255.072,301.511 255.195,301.651 255.283,301.717C255.421,301.823 255.47,301.829 255.649,301.759C255.764,301.716 255.908,301.637 255.97,301.586C256.032,301.533 256.189,301.439 256.318,301.374C256.453,301.307 256.626,301.129 256.724,300.959C256.891,300.666 256.899,300.661 257.184,300.703C257.562,300.756 257.682,300.695 257.509,300.534C257.41,300.441 257.399,300.393 257.465,300.338C257.531,300.282 257.589,300.292 257.704,300.38C257.847,300.49 257.874,300.49 258.177,300.392C258.556,300.27 258.744,300.069 258.609,299.931C258.56,299.882 258.538,299.801 258.56,299.753C258.608,299.647 258.962,299.69 259.571,299.876L259.965,299.995L260.191,299.854C260.316,299.775 260.447,299.712 260.482,299.712C260.516,299.712 260.577,299.618 260.616,299.504C260.725,299.192 260.921,299.23 260.891,299.557C260.875,299.734 260.905,299.843 260.985,299.9C261.05,299.946 261.104,300.05 261.104,300.13C261.104,300.221 261.161,300.294 261.255,300.319C261.448,300.37 261.452,300.542 261.26,300.542C260.987,300.542 260.909,300.689 260.914,301.188C260.919,301.624 260.933,301.661 261.088,301.68C261.194,301.693 261.254,301.667 261.254,301.608C261.254,301.469 261.449,301.359 261.844,301.275C262.089,301.222 262.207,301.161 262.225,301.077C262.241,301.012 262.317,300.906 262.396,300.842C262.506,300.754 262.522,300.699 262.464,300.607C262.347,300.423 262.368,300.096 262.496,300.096C262.555,300.096 262.624,300.151 262.65,300.22C262.733,300.441 263.142,300.467 263.142,300.251C263.142,300.104 263.29,300.145 263.366,300.313C263.404,300.397 263.555,300.543 263.702,300.638C263.957,300.803 263.964,300.818 263.864,300.982C263.805,301.077 263.67,301.189 263.562,301.23C263.356,301.311 263.315,301.511 263.415,301.939C263.456,302.107 263.512,302.148 263.774,302.208C263.945,302.246 264.137,302.3 264.199,302.326C264.262,302.353 264.541,302.378 264.821,302.382C265.254,302.387 265.341,302.371 265.409,302.263C265.496,302.125 265.739,302.102 266.052,302.203C266.232,302.261 266.279,302.243 266.496,302.044C266.775,301.786 266.886,301.764 266.957,301.953C266.991,302.042 266.956,302.132 266.849,302.228C266.61,302.443 266.654,302.556 267.068,302.782C267.408,302.969 267.562,303.16 267.373,303.16C267.333,303.16 267.24,303.214 267.165,303.281C267.064,303.372 266.932,303.401 266.634,303.396C266.416,303.393 266.237,303.374 266.237,303.355C266.237,303.335 265.977,303.315 265.66,303.308C265.277,303.3 265.062,303.268 265.021,303.211C264.97,303.143 264.931,303.143 264.799,303.211C264.699,303.264 264.607,303.273 264.552,303.236C264.503,303.204 264.37,303.159 264.256,303.135C264.066,303.097 264.049,303.11 264.049,303.275C264.049,303.479 263.734,303.775 263.595,303.703C263.54,303.673 263.527,303.57 263.559,303.409C263.598,303.21 263.586,303.16 263.494,303.16C263.431,303.16 263.357,303.217 263.331,303.287C263.304,303.358 263.255,303.415 263.222,303.415C263.188,303.415 263.056,303.505 262.931,303.614C262.707,303.807 262.538,303.817 262.538,303.637C262.538,303.518 262.299,303.415 262.023,303.415C261.893,303.415 261.781,303.374 261.756,303.32C261.731,303.265 261.618,303.224 261.491,303.224C261.37,303.224 261.254,303.186 261.233,303.141C261.186,303.037 260.652,303.075 260.613,303.183C260.599,303.223 260.567,303.334 260.542,303.431C260.485,303.651 260.305,303.66 260.242,303.448C260.181,303.242 259.827,303.218 259.767,303.415C259.72,303.568 259.711,303.569 259.497,303.45C259.286,303.334 258.578,303.369 258.311,303.51C258.162,303.589 257.897,303.603 255.933,303.643C254.595,303.671 254.26,303.695 254.211,303.77C254.133,303.888 253.932,303.89 253.932,303.771M327.531,304.326C327.525,304.299 327.512,304.248 327.503,304.213C327.493,304.179 327.481,304.114 327.476,304.069C327.466,303.97 324.329,303.959 324.257,304.057C324.172,304.172 323.717,304.125 323.607,303.99C323.482,303.836 322.967,303.733 322.193,303.709C321.715,303.694 321.601,303.713 321.378,303.842C321.066,304.021 321.085,304.019 320.831,303.867C320.633,303.748 319.423,303.58 318.909,303.601C318.61,303.613 318.408,303.717 318.408,303.857C318.408,303.989 318.113,304.085 317.999,303.989C317.953,303.95 317.987,303.874 318.091,303.779C318.286,303.604 318.305,303.513 318.137,303.568C318.07,303.59 317.931,303.549 317.822,303.478C317.654,303.366 317.553,303.353 317.093,303.382C316.799,303.401 316.201,303.415 315.766,303.412C315.329,303.409 314.896,303.409 314.802,303.41C314.697,303.412 314.633,303.376 314.633,303.313C314.633,303.226 314.519,303.217 313.776,303.24C313.305,303.256 312.873,303.293 312.816,303.322C312.759,303.352 312.593,303.392 312.446,303.412C312.227,303.442 312.175,303.479 312.156,303.618C312.128,303.819 311.963,303.892 311.833,303.76C311.762,303.688 311.761,303.647 311.827,303.591C311.955,303.482 311.934,303.187 311.777,302.918C311.62,302.646 311.64,302.457 311.828,302.457C312.055,302.457 312.852,302.196 313.014,302.069C313.124,301.982 313.279,301.947 313.546,301.947C313.894,301.947 313.926,301.933 314.008,301.749C314.106,301.529 314.255,301.551 314.255,301.786C314.255,301.918 314.31,301.948 314.677,302.018C315.171,302.11 315.337,302.056 315.375,301.789C315.423,301.441 315.056,301.053 314.677,301.053C314.611,301.053 314.557,301.014 314.557,300.967C314.557,300.843 314.323,300.685 314.104,300.659C314,300.648 313.915,300.596 313.915,300.543C313.915,300.467 314.06,300.445 314.643,300.431C315.316,300.415 315.373,300.423 315.409,300.542C315.449,300.67 315.689,300.725 315.689,300.606C315.689,300.571 315.741,300.542 315.803,300.542C315.865,300.542 315.916,300.5 315.916,300.45C315.916,300.315 316.057,300.264 316.183,300.351C316.368,300.482 316.623,300.369 316.796,300.079C316.939,299.84 316.987,299.81 317.189,299.824C317.333,299.833 317.528,299.78 317.706,299.68C318.143,299.438 318.196,299.389 318.139,299.275C318.11,299.216 318.069,299.102 318.048,299.02C318.015,298.888 318.034,298.874 318.227,298.892C318.464,298.915 318.442,298.857 318.602,299.891C318.657,300.25 318.885,300.468 319.124,300.391C319.252,300.349 319.278,300.124 319.162,300.063C319.053,300.006 319.07,299.905 319.194,299.865C319.253,299.846 319.372,299.889 319.459,299.963C319.585,300.069 319.71,300.095 320.106,300.095C320.549,300.095 320.597,300.107 320.597,300.224C320.597,300.404 320.767,300.442 321.038,300.324C321.248,300.232 321.263,300.202 321.231,299.952C321.151,299.31 321.153,299.298 321.333,299.277C321.459,299.261 321.503,299.288 321.503,299.378C321.503,299.532 321.832,299.84 321.995,299.84C322.062,299.84 322.179,299.867 322.256,299.902C322.37,299.954 322.384,300.004 322.332,300.197C322.297,300.325 322.289,300.471 322.311,300.521C322.372,300.653 322.783,300.561 322.956,300.377C323.113,300.207 323.344,300.235 323.277,300.415C323.233,300.531 323.408,300.728 323.566,300.74C323.787,300.757 324.115,300.716 324.194,300.661C324.241,300.628 324.263,300.544 324.241,300.474C324.204,300.352 324.231,300.347 324.79,300.378C325.328,300.407 325.499,300.465 325.503,300.618C325.504,300.643 325.451,300.688 325.385,300.719C325.32,300.75 325.227,300.834 325.178,300.906C325.129,300.977 325.032,301.104 324.96,301.189C324.888,301.273 324.82,301.439 324.809,301.557C324.79,301.748 324.82,301.787 325.087,301.916C325.458,302.093 325.647,302.047 325.761,301.75C325.827,301.579 325.886,301.531 326.034,301.531C326.137,301.531 326.385,301.439 326.584,301.324C327.001,301.085 327.055,301.075 327.124,301.227C327.159,301.304 327.104,301.386 326.943,301.499C326.632,301.713 326.652,301.808 327.017,301.859C327.389,301.909 327.374,302.034 326.992,302.062C326.794,302.076 326.677,302.13 326.575,302.254C326.406,302.458 326.329,302.689 326.387,302.817C326.453,302.964 326.829,303.096 327.181,303.096C327.36,303.096 327.623,303.124 327.767,303.159C328.004,303.217 328.049,303.205 328.261,303.031C328.389,302.926 328.533,302.841 328.581,302.841C328.707,302.841 328.813,303.029 328.768,303.176C328.712,303.357 328.885,303.417 329.335,303.372C329.725,303.334 329.732,303.336 329.732,303.502C329.732,303.659 329.709,303.671 329.397,303.671C329.213,303.671 329.042,303.698 329.018,303.73C328.969,303.796 328.315,304.181 328.251,304.181C328.229,304.181 328.161,304.224 328.098,304.277C327.983,304.375 327.552,304.411 327.531,304.325L327.531,304.326ZM289.954,304.883C289.815,304.856 289.605,304.773 289.486,304.699C289.361,304.62 289.254,304.592 289.227,304.629C289.163,304.717 288.56,304.709 288.453,304.619C288.343,304.525 286.861,304.541 286.724,304.638C286.669,304.675 286.509,304.696 286.368,304.681C286.176,304.663 286.088,304.686 286.022,304.776C285.939,304.887 285.923,304.889 285.797,304.791C285.679,304.701 285.61,304.698 285.312,304.76C284.956,304.837 284.735,304.811 284.735,304.695C284.735,304.658 284.787,304.628 284.851,304.628C285.041,304.628 285.063,304.452 284.893,304.271C284.71,304.073 284.688,303.926 284.843,303.926C284.901,303.926 285.001,303.909 285.066,303.888C285.148,303.861 285.199,303.91 285.245,304.062C285.295,304.225 285.366,304.288 285.547,304.332C285.959,304.432 286.046,304.358 285.99,303.955C285.949,303.654 285.96,303.599 286.074,303.568C286.148,303.548 286.297,303.492 286.408,303.442C286.617,303.347 287.227,303.316 287.227,303.399C287.227,303.519 287.699,303.622 288.001,303.567C288.26,303.52 288.323,303.477 288.395,303.294C288.444,303.171 288.554,303.054 288.646,303.024C288.869,302.955 288.874,302.678 288.654,302.629C288.557,302.608 288.516,302.565 288.549,302.519C288.589,302.465 288.829,302.457 289.425,302.49C289.877,302.515 290.247,302.516 290.247,302.492C290.247,302.469 290.209,302.39 290.163,302.318C290.1,302.218 290.106,302.167 290.188,302.097C290.349,301.96 290.525,302.052 290.532,302.279C290.54,302.494 290.646,302.583 290.897,302.584C290.986,302.585 291.1,302.627 291.152,302.681C291.203,302.733 291.282,302.755 291.328,302.732C291.373,302.708 291.514,302.694 291.64,302.7C291.767,302.707 291.919,302.686 291.979,302.653C292.049,302.615 292.175,302.625 292.335,302.681C292.577,302.767 292.583,302.765 292.748,302.533C292.84,302.404 292.918,302.292 292.921,302.287C292.924,302.281 293.02,302.257 293.135,302.232C293.284,302.201 293.342,302.212 293.342,302.275C293.343,302.322 293.442,302.409 293.562,302.467C293.691,302.529 293.776,302.621 293.769,302.69C293.759,302.787 293.804,302.806 294.021,302.791C294.301,302.773 294.475,302.639 294.475,302.442C294.475,302.375 294.509,302.266 294.551,302.2C294.626,302.082 294.641,302.083 294.986,302.242C295.182,302.332 295.412,302.475 295.496,302.559C295.681,302.744 295.941,302.757 296.108,302.593C296.202,302.499 296.296,302.479 296.522,302.505C296.695,302.525 296.858,302.506 296.923,302.461C297.071,302.357 297.865,302.205 297.914,302.271C297.935,302.3 297.93,302.395 297.905,302.482C297.879,302.569 297.881,302.701 297.909,302.776C297.952,302.887 298.011,302.908 298.237,302.892C298.476,302.875 298.517,302.848 298.537,302.697C298.566,302.491 298.738,302.466 298.855,302.651C298.9,302.722 298.978,302.776 299.027,302.771C299.247,302.748 299.306,302.788 299.306,302.962C299.306,303.26 299.662,303.312 300.135,303.082C300.371,302.967 300.467,302.952 300.64,303.003C300.774,303.043 300.864,303.12 300.878,303.208C300.9,303.337 300.871,303.352 300.582,303.352C300.117,303.352 299.76,303.475 299.76,303.635C299.76,303.708 299.616,303.902 299.439,304.065L299.118,304.364L298.608,304.341C298.156,304.322 298.085,304.334 297.982,304.458L297.865,304.597L297.713,304.424C297.624,304.322 297.519,304.266 297.454,304.288C297.384,304.31 297.344,304.282 297.344,304.212C297.344,304.127 297.306,304.114 297.174,304.15C297.08,304.176 296.856,304.212 296.677,304.228C296.489,304.246 296.334,304.299 296.309,304.352C296.278,304.419 296.166,304.441 295.913,304.429C295.72,304.421 295.516,304.437 295.459,304.467C295.396,304.5 295.326,304.486 295.274,304.43C295.192,304.34 294.837,304.324 294.475,304.394C294.217,304.444 293.515,304.516 293.176,304.527C293.023,304.532 292.873,304.557 292.843,304.582C292.813,304.608 292.675,304.628 292.536,304.628C292.397,304.628 292.224,304.655 292.152,304.687C292.08,304.719 291.822,304.782 291.58,304.826C291.228,304.891 291.108,304.891 290.988,304.827C290.865,304.762 290.805,304.766 290.658,304.848C290.463,304.956 290.345,304.962 289.955,304.883L289.954,304.883ZM393.191,306.099C393.163,306.026 393.164,305.878 393.192,305.769L393.243,305.571L392.933,305.596C392.717,305.614 392.623,305.597 392.623,305.54C392.623,305.43 392.474,305.438 392.123,305.564C391.897,305.645 391.64,305.666 391,305.652C389.85,305.629 389.54,305.609 389.165,305.537C388.904,305.487 388.818,305.493 388.727,305.571C388.633,305.65 388.581,305.653 388.439,305.588C388.222,305.491 387.96,305.606 387.893,305.829C387.838,306.012 387.591,305.992 387.629,305.807C387.643,305.738 387.66,305.653 387.666,305.618C387.673,305.582 387.594,305.56 387.489,305.566C387.254,305.582 386.906,305.587 386.659,305.582C386.555,305.58 386.3,305.591 386.093,305.609C385.885,305.625 385.675,305.642 385.626,305.644C385.577,305.647 385.526,305.729 385.512,305.826C385.494,305.965 385.449,306.001 385.301,306.001C385.17,306.001 385.082,305.948 385.013,305.826C384.929,305.677 384.867,305.65 384.608,305.65C384.439,305.65 384.139,305.601 383.941,305.542C383.603,305.44 383.574,305.44 383.454,305.542C383.187,305.767 382.76,305.753 382.847,305.521C382.885,305.42 382.844,305.4 382.567,305.383C382.336,305.369 382.237,305.332 382.219,305.255C382.181,305.085 382.439,305.005 382.76,305.09C383.02,305.156 383.055,305.149 383.282,304.972C383.416,304.867 383.655,304.733 383.812,304.673C384.07,304.575 384.12,304.573 384.318,304.66C384.595,304.781 384.922,304.786 384.922,304.668C384.922,304.619 384.973,304.545 385.035,304.501C385.097,304.458 385.13,304.398 385.108,304.369C385,304.22 385.175,303.999 385.479,303.901C386.046,303.718 386.125,303.758 385.941,304.136C385.888,304.245 385.897,304.246 386.155,304.142C386.366,304.057 386.43,303.991 386.447,303.836C386.474,303.603 386.684,303.563 386.721,303.783C386.734,303.861 386.776,303.926 386.813,303.926C386.9,303.926 386.81,303.519 386.718,303.489C386.559,303.436 386.515,303.167 386.632,302.968C386.719,302.82 386.738,302.678 386.699,302.421C386.657,302.135 386.669,302.067 386.77,302.034C386.942,301.979 386.965,302.018 386.971,302.369C386.974,302.617 387.031,302.749 387.241,303.012C387.476,303.304 387.524,303.334 387.649,303.268C387.727,303.227 387.791,303.156 387.791,303.111C387.791,303.065 387.844,303.012 387.907,302.991C387.982,302.967 388.006,302.909 387.975,302.829C387.94,302.736 387.971,302.695 388.093,302.668C388.216,302.64 388.233,302.619 388.156,302.578C388.101,302.548 387.979,302.523 387.885,302.523C387.654,302.521 387.667,302.342 387.907,302.265C388.01,302.232 388.13,302.129 388.172,302.036C388.236,301.894 388.281,301.873 388.461,301.904C388.578,301.924 388.712,301.909 388.757,301.871C388.801,301.833 388.895,301.821 388.965,301.844C389.067,301.876 389.083,301.936 389.043,302.162C388.979,302.518 389.105,302.617 389.591,302.593C389.841,302.581 389.999,302.531 390.136,302.42C390.269,302.314 390.416,302.266 390.608,302.266C390.863,302.266 390.887,302.251 390.887,302.087C390.887,301.989 390.846,301.874 390.797,301.833C390.728,301.774 390.747,301.721 390.882,301.599L391.057,301.442L390.853,301.148C390.609,300.797 390.635,300.634 390.916,300.742C391.018,300.781 391.12,300.876 391.143,300.953C391.166,301.031 391.321,301.2 391.489,301.331C391.721,301.513 391.793,301.618 391.794,301.774C391.795,302.01 391.852,302.099 392.038,302.157C392.11,302.18 392.17,302.242 392.17,302.296C392.17,302.46 392.364,302.406 392.555,302.189C392.931,301.762 393.19,301.57 393.416,301.551C393.629,301.533 393.644,301.546 393.666,301.781C393.684,301.958 393.645,302.083 393.534,302.21C393.449,302.309 393.378,302.471 393.378,302.57C393.378,302.728 393.428,302.77 393.766,302.89C393.98,302.967 394.183,303.014 394.219,302.995C394.254,302.976 394.305,302.848 394.332,302.71C394.358,302.571 394.395,302.458 394.415,302.458C394.434,302.458 394.552,302.53 394.676,302.618C394.947,302.811 395.039,302.778 395.039,302.485C395.039,302.309 395.068,302.266 395.19,302.266C395.291,302.266 395.341,302.309 395.341,302.396C395.341,302.467 395.394,302.542 395.457,302.564C395.521,302.583 395.557,302.648 395.538,302.705C395.52,302.762 395.482,302.873 395.456,302.953C395.414,303.075 395.435,303.096 395.598,303.096C395.771,303.096 395.788,303.119 395.773,303.328C395.758,303.546 395.776,303.566 396.066,303.657C396.361,303.749 396.383,303.748 396.538,303.616C396.627,303.541 396.747,303.48 396.804,303.48C396.981,303.48 397.626,303.741 397.99,303.959C398.18,304.073 398.41,304.186 398.5,304.211C398.594,304.236 398.663,304.307 398.663,304.379C398.663,304.451 398.745,304.535 398.857,304.578C399.015,304.639 399.046,304.69 399.028,304.862C399.001,305.13 399.107,305.218 399.427,305.192C399.655,305.174 399.686,305.147 399.72,304.948C399.762,304.703 399.98,304.606 400.05,304.8C400.157,305.098 400.121,305.568 399.978,305.729C399.756,305.979 399.208,306.014 398.75,305.807C398.326,305.617 398.052,305.608 397.87,305.778C397.692,305.944 397.531,305.941 397.531,305.771C397.531,305.668 397.501,305.647 397.399,305.685C397.326,305.711 397.165,305.738 397.04,305.745C396.916,305.751 396.739,305.79 396.649,305.831C396.557,305.872 396.212,305.906 395.878,305.906C395.382,305.906 395.259,305.886 395.196,305.794C395.128,305.696 395.119,305.7 395.117,305.833C395.115,305.976 395.095,305.981 394.778,305.942C394.573,305.916 394.378,305.927 394.282,305.971C394.146,306.033 394.116,306.024 394.081,305.911C394.028,305.738 393.621,305.723 393.559,305.889C393.443,306.209 393.268,306.308 393.19,306.1L393.191,306.099ZM234.978,306.594C234.927,306.5 234.783,306.393 234.661,306.357C234.458,306.297 234.414,306.31 234.215,306.49L233.995,306.69L233.821,306.552L233.647,306.414L233.453,306.542C233.223,306.696 233.094,306.708 233.094,306.576C233.094,306.498 232.971,306.48 232.433,306.482C232.07,306.483 231.519,306.512 231.211,306.546C230.633,306.609 230.491,306.57 230.58,306.374C230.609,306.31 230.524,306.289 230.231,306.289C229.955,306.289 229.83,306.316 229.799,306.384C229.75,306.492 229.538,306.512 229.428,306.421C229.328,306.338 227.569,306.209 227.244,306.261C227.083,306.286 226.936,306.275 226.875,306.231C226.815,306.19 226.334,306.146 225.724,306.128C224.523,306.092 224.29,306.062 224.232,305.933C224.165,305.788 223.963,305.826 223.868,306.003C223.765,306.193 223.629,306.179 223.594,305.973C223.569,305.833 223.547,305.828 223.116,305.87C222.516,305.927 222.473,305.946 222.42,306.169C222.364,306.406 222.138,306.4 222.069,306.161C222.036,306.045 221.982,306.009 221.877,306.027C221.797,306.041 221.482,306.06 221.177,306.07C220.872,306.079 220.603,306.104 220.58,306.124C220.555,306.145 220.471,306.112 220.394,306.052C220.285,305.971 220.09,305.94 219.599,305.929C218.882,305.914 218.611,305.988 218.401,306.258C218.333,306.345 218.247,306.416 218.209,306.416C218.05,306.416 218.072,306.219 218.26,305.979C218.415,305.782 218.449,305.677 218.412,305.53C218.366,305.357 218.381,305.339 218.574,305.319C218.732,305.305 218.783,305.267 218.774,305.174C218.755,304.998 218.958,304.693 219.093,304.693C219.264,304.693 219.297,304.839 219.171,305.043C219.039,305.258 219.073,305.331 219.305,305.331C219.652,305.331 219.76,305.188 219.793,304.683C219.81,304.425 219.862,304.193 219.91,304.166C219.956,304.141 220.125,304.119 220.285,304.119C220.511,304.118 220.584,304.089 220.614,303.99C220.665,303.828 220.916,303.826 221.158,303.983C221.279,304.062 221.323,304.138 221.29,304.21C221.226,304.352 221.364,304.565 221.52,304.565C221.587,304.565 221.824,304.516 222.045,304.457C222.352,304.375 222.452,304.318 222.46,304.217C222.484,303.963 222.441,303.828 222.27,303.607C222.131,303.426 222.101,303.306 222.111,302.981C222.13,302.425 222.227,302.366 222.569,302.703C222.83,302.961 222.852,302.969 223.017,302.877C223.218,302.766 223.282,302.841 223.206,303.096C223.167,303.232 223.204,303.472 223.327,303.851C223.367,303.975 223.812,303.884 223.982,303.718C224.057,303.643 224.194,303.551 224.284,303.513C224.396,303.467 224.457,303.374 224.475,303.222C224.488,303.1 224.547,302.977 224.606,302.949C224.684,302.912 224.701,302.831 224.668,302.652C224.627,302.438 224.644,302.396 224.799,302.326C224.898,302.283 225.002,302.216 225.032,302.177C225.071,302.127 225.13,302.129 225.239,302.186C225.323,302.23 225.522,302.266 225.683,302.266L225.975,302.266L226.043,301.327L226.11,300.388L226.435,300.321C226.623,300.283 226.818,300.191 226.897,300.101C226.972,300.018 227.069,299.968 227.113,299.991C227.214,300.043 227.155,300.601 227.008,300.977C226.856,301.372 227.059,301.947 227.351,301.947C227.517,301.947 227.691,301.556 227.773,301.002C227.813,300.734 227.851,300.668 227.949,300.684C228.047,300.701 228.068,300.767 228.049,300.994C228.03,301.24 228.058,301.31 228.238,301.463C228.507,301.69 228.68,302.249 228.526,302.394C228.364,302.548 228.316,302.817 228.409,303.056C228.525,303.35 228.662,303.444 228.852,303.358C229.047,303.269 229.102,303.14 229.133,302.681L229.16,302.298L229.408,302.301C229.623,302.304 229.664,302.333 229.727,302.518C229.768,302.635 229.878,302.797 229.974,302.878C230.071,302.96 230.149,303.08 230.149,303.144C230.149,303.309 230.297,303.415 230.528,303.415C230.852,303.415 231.016,303.268 231.007,302.987C230.999,302.738 231,302.738 231.389,302.662C231.892,302.563 232.074,302.566 232.18,302.673C232.228,302.721 232.409,302.78 232.584,302.804C232.951,302.853 233.177,302.999 233.12,303.149C233.088,303.234 233.095,303.237 233.154,303.168C233.194,303.119 233.26,303.097 233.299,303.117C233.41,303.176 233.697,302.976 233.65,302.874C233.584,302.728 233.692,302.629 233.82,302.719C233.948,302.809 233.957,302.802 234.052,302.553C234.111,302.399 234.168,302.362 234.343,302.362C234.511,302.362 234.569,302.396 234.602,302.521C234.665,302.752 235.086,302.92 235.484,302.871C235.808,302.833 235.957,302.904 235.792,303.019C235.74,303.054 235.506,303.131 235.27,303.189C235.036,303.247 234.802,303.335 234.752,303.387C234.702,303.437 234.617,303.48 234.562,303.48C234.446,303.48 234.399,303.605 234.384,303.958C234.375,304.187 234.398,304.223 234.616,304.304C234.842,304.388 234.866,304.385 234.966,304.256C235.088,304.1 235.359,304.068 235.359,304.209C235.359,304.259 235.436,304.31 235.529,304.32C235.622,304.332 235.699,304.384 235.7,304.437C235.705,304.75 236.035,305.009 236.431,305.013C236.526,305.014 236.688,305.068 236.788,305.134C236.982,305.26 237.171,305.247 237.171,305.107C237.171,305.01 237.379,304.93 237.486,304.986C237.526,305.008 237.54,305.095 237.515,305.179C237.459,305.367 237.647,305.453 237.863,305.339C238.153,305.186 238.262,305.43 237.997,305.639C237.912,305.707 237.818,305.84 237.787,305.935C237.735,306.1 237.631,306.165 236.768,306.578C236.538,306.688 236.587,306.702 236.062,306.38C235.936,306.302 235.863,306.295 235.747,306.347C235.663,306.385 235.525,306.416 235.439,306.416C235.354,306.416 235.284,306.439 235.284,306.468C235.284,306.496 235.235,306.575 235.177,306.643C235.074,306.762 235.067,306.76 234.978,306.594M120.261,306.831C120.136,306.781 119.92,306.74 119.78,306.739C119.321,306.734 118.822,306.12 119.111,305.917C119.164,305.881 119.375,305.84 119.581,305.829C119.894,305.813 119.972,305.783 120.066,305.639C120.165,305.49 120.166,305.447 120.07,305.296C120.01,305.201 119.909,305.111 119.846,305.095C119.783,305.079 119.674,305.04 119.603,305.008C119.532,304.976 119.421,304.967 119.358,304.987C119.282,305.011 119.22,304.972 119.173,304.867C119.094,304.691 118.739,304.595 118.579,304.707C118.465,304.787 118.434,304.767 118.399,304.597C118.379,304.496 118.41,304.473 118.547,304.485C118.643,304.493 118.815,304.459 118.932,304.408C119.349,304.226 120.565,304.348 120.778,304.593C120.854,304.682 120.979,304.717 121.247,304.72C121.558,304.723 121.626,304.701 121.702,304.573C121.752,304.49 121.936,304.351 122.11,304.263C122.377,304.128 122.478,304.111 122.74,304.152C123.197,304.224 124.431,304.25 124.306,304.184C124.162,304.11 124.262,303.926 124.448,303.926C124.567,303.926 124.611,303.871 124.649,303.666C124.676,303.524 124.779,303.307 124.876,303.184C124.979,303.057 125.054,302.869 125.054,302.742C125.054,302.621 125.091,302.521 125.135,302.521C125.259,302.521 125.53,302.653 125.681,302.785C125.932,303.006 126.717,302.878 127.029,302.566C127.168,302.426 127.256,302.382 127.311,302.427C127.462,302.551 127.31,302.781 127.007,302.884C126.735,302.975 126.543,303.226 126.665,303.329C126.714,303.372 127.446,303.237 127.645,303.15C127.825,303.072 128.056,303.137 128.11,303.281C128.145,303.374 128.578,303.543 128.782,303.543C128.87,303.543 128.827,303.321 128.714,303.195C128.596,303.064 128.563,302.841 128.662,302.841C128.694,302.841 128.796,302.885 128.887,302.939C128.979,302.994 129.109,303.029 129.177,303.019C129.264,303.006 129.333,303.087 129.415,303.304C129.517,303.57 129.558,303.607 129.742,303.607C130.023,303.607 130.257,303.692 130.521,303.89C130.642,303.98 130.799,304.054 130.871,304.054C130.942,304.054 131.043,304.097 131.094,304.15C131.146,304.202 131.244,304.245 131.312,304.246C131.38,304.247 131.519,304.289 131.623,304.339C131.727,304.39 131.888,304.46 131.982,304.497C132.076,304.532 132.152,304.598 132.153,304.643C132.155,304.744 132.834,305.011 133.088,305.011C133.218,305.011 133.307,304.958 133.375,304.837C133.535,304.554 133.709,304.577 133.759,304.886C133.781,305.032 133.818,305.164 133.838,305.183C133.859,305.201 134.194,305.22 134.581,305.226C135.231,305.236 135.287,305.247 135.308,305.369C135.319,305.442 135.278,305.538 135.213,305.583C135.149,305.629 135.096,305.734 135.096,305.818C135.096,305.925 135.053,305.97 134.949,305.97C134.866,305.97 134.744,306.052 134.669,306.161C134.51,306.388 134.434,306.395 134.026,306.22C133.816,306.128 133.643,306.098 133.481,306.124C133.351,306.144 133.144,306.136 133.019,306.106C132.745,306.041 131.907,306.113 131.871,306.204C131.856,306.241 131.802,306.319 131.751,306.378C131.637,306.51 131.385,306.45 131.415,306.299C131.429,306.222 131.355,306.186 131.133,306.159C130.966,306.139 130.756,306.087 130.665,306.046C130.444,305.943 130.108,305.952 129.928,306.068C129.724,306.198 128.954,306.191 128.71,306.056C128.559,305.973 128.485,305.965 128.336,306.022C128.21,306.071 128.089,306.074 127.957,306.032C127.826,305.99 127.713,305.992 127.611,306.039C127.49,306.093 127.437,306.084 127.353,305.99C127.261,305.889 127.237,305.886 127.173,305.97C127.094,306.071 126.943,306.087 126.016,306.092C125.693,306.093 125.239,306.141 125.008,306.198C124.73,306.266 124.474,306.287 124.255,306.259C123.983,306.224 123.923,306.235 123.923,306.316C123.923,306.439 123.916,306.439 123.648,306.321C123.373,306.199 123.091,306.199 122.817,306.32C122.544,306.441 122.303,306.442 122.089,306.324C121.99,306.27 121.694,306.224 121.365,306.215C120.859,306.2 120.794,306.213 120.664,306.349C120.468,306.554 120.514,306.619 120.907,306.7C121.092,306.737 121.242,306.797 121.242,306.832C121.242,306.931 120.514,306.93 120.261,306.831ZM175.749,307.486C175.727,307.437 175.743,307.318 175.787,307.221C175.915,306.935 175.887,306.863 175.644,306.863C175.521,306.863 175.401,306.892 175.375,306.927C175.241,307.11 174.884,306.909 174.884,306.65C174.884,306.512 175.434,306.352 175.909,306.352C176.318,306.352 176.329,306.347 176.441,306.12C176.579,305.84 176.527,305.61 176.31,305.552C176.179,305.517 176.16,305.475 176.198,305.314C176.259,305.054 176.384,304.938 176.576,304.961C176.712,304.976 176.734,305.024 176.734,305.288C176.734,305.55 176.762,305.609 176.923,305.685C177.335,305.878 177.677,305.704 177.397,305.443C177.27,305.325 177.27,305.315 177.41,305.229C177.49,305.18 177.633,305.139 177.728,305.139C177.843,305.139 177.938,305.076 178.017,304.948C178.082,304.842 178.183,304.756 178.243,304.756C178.411,304.756 178.52,304.522 178.465,304.276C178.419,304.07 178.43,304.054 178.604,304.054C178.743,304.054 178.806,304.011 178.841,303.894C178.914,303.646 179.145,303.695 179.419,304.019C179.551,304.174 179.709,304.318 179.769,304.337C179.97,304.402 180.235,304.299 180.434,304.08C180.635,303.856 180.771,303.801 180.776,303.942C180.777,303.986 180.858,304.103 180.953,304.203C181.085,304.339 181.181,304.378 181.343,304.363C181.53,304.344 181.568,304.302 181.652,304.023C181.705,303.847 181.779,303.646 181.819,303.576C181.929,303.377 182.044,303.075 182.049,302.968C182.084,302.303 182.087,302.3 182.486,302.455C182.716,302.545 182.728,302.569 182.779,303.025C182.814,303.343 182.804,303.54 182.747,303.617C182.629,303.776 182.638,303.895 182.777,303.992C182.957,304.119 183.197,303.968 183.413,303.595C183.526,303.401 183.672,303.25 183.783,303.215C183.996,303.146 184.409,303.241 184.558,303.394C184.642,303.479 184.627,303.515 184.46,303.63C184.302,303.74 184.267,303.816 184.278,304.022C184.292,304.264 184.305,304.276 184.514,304.259C184.792,304.236 185.416,304.018 185.687,303.847C185.892,303.72 186.058,303.736 186.058,303.883C186.058,303.926 186.126,304.01 186.209,304.07C186.293,304.132 186.36,304.259 186.36,304.36C186.36,304.586 186.484,304.693 186.749,304.693C186.863,304.693 186.983,304.731 187.016,304.78C187.05,304.827 187.238,304.926 187.436,305C187.722,305.105 187.795,305.163 187.795,305.287C187.795,305.518 187.95,305.588 188.551,305.631C188.928,305.658 189.056,305.687 188.973,305.727C188.905,305.759 188.851,305.864 188.851,305.962C188.851,306.141 188.654,306.352 188.486,306.352C188.437,306.352 188.246,306.412 188.062,306.486C187.877,306.558 187.688,306.599 187.642,306.575C187.593,306.55 187.54,306.588 187.516,306.665C187.456,306.86 187.293,306.83 187.201,306.608C187.159,306.502 187.094,306.416 187.059,306.416C186.947,306.416 186.813,306.565 186.813,306.689C186.813,306.845 186.631,306.797 186.602,306.634C186.582,306.521 186.498,306.511 185.432,306.494C184.322,306.476 183.773,306.524 182.887,306.711C182.219,306.853 181.642,306.895 180.377,306.895C179.723,306.895 179.187,306.914 179.187,306.937C179.187,306.96 178.841,306.982 178.417,306.985C177.992,306.989 177.616,307.017 177.579,307.047C177.542,307.079 177.408,307.076 177.27,307.04C177.103,306.996 176.895,307 176.603,307.051C176.163,307.129 176.051,307.194 176.006,307.401C175.973,307.552 175.804,307.608 175.749,307.486M418.635,308.188C418.616,308.144 418.591,308.037 418.578,307.949C418.564,307.855 418.512,307.797 418.452,307.807C418.396,307.818 418.023,307.842 417.623,307.863C417.224,307.882 416.861,307.922 416.816,307.952C416.773,307.982 416.663,307.99 416.572,307.971C416.461,307.946 416.392,307.968 416.36,308.037C416.295,308.182 416.186,308.166 415.984,307.981C415.887,307.893 415.736,307.821 415.647,307.821C415.549,307.821 415.47,307.771 415.446,307.693C415.424,307.623 415.368,307.563 415.321,307.561C414.964,307.537 414.365,307.591 414.158,307.664C414.018,307.714 413.808,307.736 413.684,307.715C413.494,307.683 413.461,307.697 413.461,307.813C413.461,308.007 413.214,307.988 412.928,307.773C412.727,307.621 412.705,307.575 412.769,307.434C412.809,307.344 412.964,307.192 413.114,307.096C413.391,306.917 413.649,306.582 413.581,306.489C413.559,306.46 413.63,306.3 413.736,306.131C413.881,305.9 413.916,305.773 413.88,305.609C413.843,305.445 413.86,305.383 413.951,305.354C414.138,305.293 414.367,305.567 414.367,305.855C414.367,306.076 414.395,306.113 414.616,306.191C414.984,306.321 415.492,306.25 415.579,306.056C415.632,305.938 415.703,305.905 415.908,305.905C416.242,305.905 416.557,306.006 416.557,306.113C416.557,306.159 416.66,306.229 416.786,306.27C416.978,306.331 417.071,306.321 417.361,306.214C417.694,306.089 417.705,306.076 417.664,305.86C417.623,305.652 417.632,305.64 417.787,305.682C417.879,305.707 418.062,305.741 418.194,305.759C418.386,305.784 418.44,305.825 418.459,305.957C418.474,306.063 418.567,306.164 418.716,306.238C418.948,306.352 418.955,306.351 419.32,306.181C419.738,305.986 419.8,305.929 419.801,305.74C419.803,305.557 420.318,305.41 420.38,305.575C420.527,305.963 420.709,306.101 420.926,305.991C421.007,305.95 421.1,305.952 421.2,305.997C421.541,306.15 421.542,306.153 421.417,306.416C421.307,306.65 421.308,306.686 421.438,306.925C421.568,307.167 421.819,307.319 422.313,307.46C422.43,307.493 422.419,307.528 422.216,307.782C421.957,308.108 421.543,308.276 421.345,308.136C421.282,308.092 421.106,308.05 420.953,308.042C420.731,308.03 420.665,307.997 420.633,307.88C420.608,307.792 420.513,307.715 420.399,307.689C420.149,307.633 419.426,307.691 419.426,307.768C419.426,307.801 419.309,307.868 419.167,307.919C419.025,307.969 418.886,308.068 418.86,308.139C418.806,308.283 418.683,308.31 418.635,308.188M102.849,308.412C102.845,308.385 102.836,308.321 102.83,308.268C102.818,308.149 102.35,308.172 102.178,308.3C101.994,308.438 101.38,308.349 101.235,308.164C101.164,308.072 101.045,308.012 100.931,308.012C100.829,308.012 100.742,307.99 100.738,307.964C100.695,307.626 100.706,307.512 100.793,307.392C100.853,307.308 100.895,307.068 100.895,306.801L100.895,306.35L101.103,306.388C101.217,306.409 101.408,306.453 101.527,306.484C101.833,306.566 101.899,306.506 101.843,306.193C101.788,305.888 101.848,305.842 102.291,305.842C102.524,305.842 102.554,305.867 102.715,306.194C102.938,306.65 103.164,306.722 103.438,306.425C103.61,306.239 103.657,306.224 104.093,306.224C104.454,306.224 104.588,306.198 104.68,306.107C104.746,306.042 104.881,305.941 104.98,305.883C105.127,305.795 105.161,305.719 105.161,305.473C105.161,305.247 105.189,305.171 105.274,305.171C105.35,305.171 105.395,305.249 105.41,305.411C105.43,305.601 105.48,305.671 105.655,305.748C105.776,305.8 105.931,305.916 105.999,306.003C106.099,306.131 106.184,306.161 106.453,306.161C106.826,306.161 106.849,306.131 106.63,305.935C106.455,305.777 106.507,305.715 106.911,305.6C107.106,305.545 107.171,305.551 107.247,305.628C107.321,305.703 107.321,305.751 107.251,305.846C107.117,306.028 107.13,306.05 107.533,306.304L107.903,306.539L107.981,306.349C108.061,306.157 108.24,306.1 108.34,306.237C108.374,306.283 108.318,306.363 108.2,306.437L108.003,306.561L108.269,306.773C108.416,306.89 108.52,307.023 108.503,307.068C108.484,307.114 108.307,307.165 108.099,307.183C107.76,307.211 107.725,307.229 107.704,307.391C107.686,307.522 107.614,307.591 107.427,307.656C107.288,307.706 107.136,307.806 107.089,307.879C107.029,307.975 106.931,308.012 106.744,308.012C106.599,308.012 106.482,307.986 106.482,307.953C106.482,307.921 106.384,307.853 106.264,307.803C106.079,307.724 106.011,307.724 105.803,307.798C105.668,307.846 105.377,307.885 105.157,307.885C104.935,307.885 104.733,307.914 104.707,307.949C104.682,307.984 104.39,308.013 104.058,308.013C103.518,308.013 103.436,308.029 103.27,308.17C103.168,308.256 103.085,308.356 103.085,308.393C103.085,308.469 102.862,308.486 102.849,308.412L102.849,308.412ZM140.985,308.904C140.985,308.829 140.906,308.746 140.793,308.702C140.648,308.646 140.606,308.588 140.623,308.466C140.642,308.328 140.698,308.295 140.985,308.249C141.172,308.219 141.447,308.169 141.596,308.136L141.869,308.077L141.861,307.294C141.856,306.763 141.884,306.465 141.95,306.368C142.054,306.214 142.263,306.173 142.277,306.305C142.282,306.348 142.294,306.413 142.303,306.448C142.313,306.483 142.326,306.603 142.332,306.715C142.343,306.896 142.389,306.935 142.779,307.086C143.478,307.358 143.57,307.358 143.834,307.086C143.961,306.956 144.084,306.768 144.108,306.667C144.132,306.566 144.219,306.427 144.303,306.356C144.578,306.124 144.818,306.357 144.579,306.623C144.454,306.764 144.513,307.053 144.675,307.103C144.742,307.123 144.896,307.209 145.016,307.292C145.165,307.396 145.309,307.439 145.468,307.425L145.704,307.406L145.683,306.9C145.669,306.55 145.691,306.378 145.756,306.344C145.847,306.297 145.855,305.88 145.769,305.634C145.738,305.544 145.779,305.522 145.986,305.522C146.327,305.522 146.483,305.408 146.511,305.139C146.565,304.619 146.899,305.044 146.998,305.758L147.046,306.097L147.488,306.108C147.732,306.115 148.007,306.122 148.101,306.125C148.223,306.128 148.278,306.087 148.295,305.981C148.327,305.791 148.632,305.693 149.041,305.745C149.41,305.791 149.72,305.973 149.633,306.093C149.575,306.17 149.517,306.167 148.903,306.057C148.752,306.03 148.675,306.056 148.583,306.167C148.478,306.293 148.477,306.333 148.564,306.445C148.648,306.553 148.75,306.577 149.148,306.58C149.838,306.585 149.937,306.626 150.016,306.944C150.076,307.188 150.106,307.216 150.328,307.234C150.557,307.254 150.573,307.241 150.573,307.057C150.573,306.667 150.975,306.743 150.984,307.134C150.988,307.31 151.033,307.36 151.272,307.459C151.583,307.588 151.652,307.8 151.432,307.955C151.256,308.079 151.185,308.282 151.269,308.418C151.318,308.497 151.315,308.559 151.263,308.604C151.157,308.693 150.967,308.561 150.937,308.375C150.917,308.263 150.87,308.24 150.698,308.255C150.58,308.265 150.404,308.231 150.308,308.178C150.173,308.103 150.117,308.099 150.058,308.159C149.973,308.244 149.538,308.254 149.154,308.178C148.968,308.141 148.855,308.158 148.701,308.244C148.589,308.308 148.293,308.379 148.044,308.404C147.795,308.427 147.461,308.476 147.303,308.511C147.058,308.566 147.02,308.561 147.056,308.481C147.087,308.415 147.061,308.396 146.968,308.42C146.895,308.438 146.675,308.472 146.477,308.495C146.252,308.522 146.119,308.57 146.119,308.624C146.119,308.711 145.894,308.842 145.745,308.842C145.698,308.842 145.68,308.782 145.706,308.699C145.747,308.559 145.735,308.556 145.116,308.561C144.467,308.567 144.295,308.604 144.313,308.735C144.341,308.926 144.298,309.034 144.193,309.034C144.118,309.034 144.08,308.97 144.08,308.842L144.08,308.651L143.571,308.651C143.29,308.65 143.011,308.623 142.95,308.59C142.889,308.558 142.805,308.555 142.761,308.584C142.719,308.613 142.416,308.648 142.09,308.662C141.556,308.684 141.479,308.703 141.319,308.86C141.11,309.067 140.985,309.084 140.985,308.905L140.985,308.904Z" style="fill:rgb(84,71,46);fill-rule:nonzero;"/>
            </g>
        </g>
        <g>
            <g>
                <path d="M132.523,264.68L171.093,241.337C178.533,254.53 185.303,265.69 201.54,265.69C217.103,265.69 226.913,259.603 226.913,235.923L226.913,74.8833L274.277,74.8833L274.277,236.597C274.277,285.653 245.523,307.983 203.57,307.983C165.68,307.983 143.687,288.36 132.523,264.68Z" style="fill:rgb(81,63,38);fill-rule:nonzero;"/>
                <path d="M299.993,259.603L338.56,237.273C348.71,253.853 361.903,266.033 385.247,266.033C404.873,266.033 417.387,256.22 417.387,242.687C417.387,226.45 404.53,220.697 382.88,211.227L371.04,206.15C336.87,191.603 314.2,173.333 314.2,134.767C314.2,99.2433 341.267,72.1767 383.557,72.1767C413.667,72.1767 435.32,82.6667 450.88,110.07L414.003,133.75C405.883,119.203 397.09,113.453 383.557,113.453C369.687,113.453 360.89,122.25 360.89,133.75C360.89,147.96 369.687,153.713 389.983,162.51L401.823,167.583C442.083,184.84 464.75,202.43 464.75,242.01C464.75,284.64 431.257,307.983 386.263,307.983C342.28,307.983 313.863,287.01 299.993,259.603Z" style="fill:rgb(81,63,38);fill-rule:nonzero;"/>
            </g>
        </g>
        <g>
            <g>
                <path d="M53.805,107.999L62.2378,81.9845L40.0245,65.9449L67.5846,65.9449L76.1031,40L84.6207,65.9449L112.18,65.9449L89.9667,81.9845L98.3937,108L76.1031,91.9612L54.3196,107.647L53.805,107.999Z" style="fill:rgb(183,18,52);fill-rule:nonzero;"/>
            </g>
        </g>
        <g>
            <g>
                <rect x="-7.05175e-15" y="419.791" width="505.881" height="85" style="fill:rgb(183,18,52);fill-rule:nonzero;"/>
            </g>
        </g>
    </g>
</svg>
