<svg height="32" width="32" xmlns="http://www.w3.org/2000/svg"><circle cx="16" cy="15.7" r="15.1" fill="#514028"/><path d="M15.7 13.2l-.2.6-.8 2.1-1.6 4c-.3.9 0 1.6.7 1.8.8.3 1.7.1 2.3-.5l.7-1 4-7.9c.2-.4.4-.8.8-1.1.3-.2.6-.3 1-.1.3.2.3.5.3.8l-.3 1-2.9 6.1a4 4 0 0 0 2 5.5c1.3.6 2.6.7 4 .5.8-.1 1.2-.5 1.2-1.1 0-.7-.3-1.1-1.1-1.3l-1.7-.3c-.9-.2-1.2-.6-1.2-1.5l.1-.8c.3-1.7 1.1-3.2 1.7-4.7.7-1.7 1.6-3.3 1.9-5.1.2-1.5-.7-2.9-2.1-3.2-1-.2-2-.2-2.9.4-.3.2-.7.2-1-.1l-.5-.5c-1-.9-2.3-1-3.3-.1l-.9.7c-.5.4-1.1.6-1.8.2-.7-.4-1.3-.7-2-.9-1.6-.5-3.6.5-4.3 2.2l-1 2.5c-1 2.9-2 5.9-2.8 8.9-.4 1.6.5 3.2 2 3.7 1.8.6 3.1 0 3.9-1.7l2.2-5.4 1.6-4.1c.3-.6.9-1 1.4-.8.4-.2.7.5.6 1.2" fill="#fff"/></svg>
