<svg viewBox="0 0 128 128" xmlns="http://www.w3.org/2000/svg"><path d="M52.7 58.6l5.5 16.5 17.1-5.7-5.5-16.5-17.1 5.7zM100.4 75l-8.3 2.7 2.9 8.6a6.6 6.6 0 1 1-12.6 4.2L79.5 82l-17 5.8 2.8 8.6a6.6 6.6 0 1 1-12.6 4.2l-2.9-8.6-8.3 2.8A6.6 6.6 0 0 1 37.3 82l8.3-2.8-5.5-16.5-8.3 2.8A6.6 6.6 0 0 1 27.6 53l8.3-2.7-2.9-8.6a6.6 6.6 0 1 1 12.6-4.2l2.9 8.5 17-5.7-2.8-8.6a6.6 6.6 0 0 1 12.6-4.2l2.9 8.6 8.3-2.8A6.6 6.6 0 1 1 90.7 46l-8.3 2.8 5.5 16.5 8.3-2.8a6.6 6.6 0 0 1 4.2 12.6zm22.2-28.6c-13.1-44-32.2-54.2-76.2-41-44 13.2-54.2 32.2-41 76.2 13.2 44 32.2 54.2 76.2 41 44-13.2 54.2-32.2 41-76.2" fill="#514028"/></svg>
