<svg version="1" xmlns="http://www.w3.org/2000/svg" width="933.333" height="933.333" viewBox="0 0 700.000000 700.000000"><path d="M99.4 73.5L93.8 91l-19.1.2-19.2.3L70 101.9c8 5.7 14.9 10.8 15.3 11.2.5.4-1.7 8.4-4.8 17.9-3.1 9.5-5.4 17.4-5.2 17.6.2.2 7-4.3 15-10.1s14.8-10.5 15.2-10.5c.4 0 7.2 4.7 15.2 10.5 8 5.8 14.8 10.4 15 10.2.2-.3-2.2-8.2-5.3-17.7-3-9.5-5.2-17.6-4.7-18 .4-.3 7.3-5.4 15.3-11.1l14.5-10.4-19.2-.3-19.2-.2-5.6-17.5c-3-9.6-5.8-17.5-6-17.5-.2 0-3 7.9-6.1 17.5zM514.5 101.1c-18.3 2.7-37.1 10.6-49 20.6-22 18.5-31.7 43.4-29.3 75.3 1.7 23.7 10.1 41.5 27 57.6 14.2 13.4 25.3 19.9 64.3 36.9 21.7 9.6 31.7 14.7 37.5 19.4 6.8 5.5 7.5 6.4 10.5 12.6 4.5 9.2 3.2 21.8-3.3 30.3-13 17.1-50.5 19.6-74.9 5-8.8-5.2-17.8-14.8-27.9-29.6-.2-.3-51.8 29.2-53.2 30.4-1.3 1 9.3 16.8 17.1 25.7 3.3 3.7 5.7 7.1 5.3 7.4-1.1 1.1-33.2 4.2-44.3 4.3-12.5 0-16.3-.9-16.3-4 0-1.5-.7-2-2.8-2-1.6 0-3.7.7-4.8 1.5-1 .8-3.6 1.5-5.7 1.5h-3.8l2.5-3.3c3.9-5.1 10.4-19.5 12.5-27.8 4-15.6 4.1-19.8 4.1-141V104h-66l-.2 119.7-.3 119.8-2.4 5.9c-3 7.6-7.8 12.8-14.4 15.7-4.4 2-6.9 2.3-16.2 2.4-9.9 0-11.6-.3-16.8-2.7-7.4-3.5-15.1-11.2-21.2-21.6-2.8-4.5-5.3-8.2-5.6-8.2-.6 0-51.8 30.7-52.8 31.6-.6.6 4.7 10.2 9.7 17.4 2.5 3.6 7.6 9.7 11.4 13.6l7 7.2-7.8 1.7c-5.2 1.1-8.9 1.4-11.3.9-2-.4-6.1-.8-9.1-.7-3 0-5.8-.5-6.2-1-.4-.7-1.1-.7-2.1.1-.8.7-2.1 1-2.9.7-.8-.3-2.1.1-2.8 1-.7.8-2 1.5-3 1.5s-2.3.7-3 1.5c-1.2 1.4-6.5 1.1-8.3-.5-1.4-1.2-4.7.1-4.7 1.9 0 2.1-2.8 3.8-8.2 5-2.8.7-4.7.6-5.4 0-.9-.7-2-.6-3.5.3-1.6 1-2.3 1-2.6.1-.2-.7-1.1-.9-1.9-.6-.8.3-1.4 0-1.4-.7 0-1-.3-1-1.4-.1-1.1.9-1.6.9-2.2 0-.5-.9-1-.5-1.6 1.2-.7 1.8-1.1 2-1.7 1-.7-1.1-1.6-.6-4 2-2.5 2.7-3.3 3.1-4 2-.8-1.2-1.2-1.2-2.6.3-1 .9-2.3 1.5-3.1 1.2-.7-.3-1.8.2-2.4 1-.7.8-2.1 1.4-3.1 1.4s-2 .4-2.4.9c-.6 1.1-9.1 3.6-15.2 4.5-5.8.8-15.4 4.7-15 6 .2.7 12.1 1.5 36.3 2.4 30.7 1.1 39.1 1.1 57.6-.2 19.9-1.3 24.9-1.3 61.5.5 21.9 1 40.5 2.2 41.3 2.5 3 1.2 32.8.4 58.4-1.6 90.7-6.8 95-6.9 186-3.9 32.4 1 44.7 1 59.5.1 10.2-.7 26.5-1.2 36.2-1.2 17.5 0 19.9-.4 19.9-3.7 0-.7-1.8-2.3-4.1-3.5-2.2-1.3-5.4-3-7-3.9-1.6-.9-4.9-3.3-7.4-5.3-3-2.5-5.1-3.5-6.4-3.1-1 .3-2.4-.1-3.1-1-1.5-1.8-1.6-1.7 3.7-4.3 6.1-3.1 18.2-13.2 23.1-19.3C638 375.7 644 357.8 644 335c0-41.3-17.7-67.4-61-90.3-5.8-3.1-16.8-8.3-24.5-11.7-39.2-17.2-47-21.7-52.8-30.2-8.2-12.1-6.3-29.2 4.3-38.2 9.8-8.2 27.8-9.3 41.7-2.6 6.6 3.3 15.4 11.9 19.4 19 1.6 2.8 2.8 3.9 3.8 3.5 1.5-.6 47.8-30.1 49.3-31.4 1.3-1.1-8.6-15.3-16.6-23.8-11.4-12.1-23.7-19.7-39.6-24.4-14-4.2-38.6-6-53.5-3.8zM74.7 476.4c-7.5 2.7-10 7-10.1 17.2-.1 9 1.7 11.7 14 21.5 4.9 3.8 9.7 8.2 10.6 9.7C92.6 530 90.7 537 86 537c-3 0-5-2.8-5-7.1v-4l-8.2.3-8.3.3.2 6.3c.3 11.7 5.8 16.4 19.6 17.1 13.8.6 20.6-2.9 22.6-11.9 3.3-14.1.7-18.7-18.9-34.2-3-2.4-5.9-5.6-6.4-7-1.3-3.8 0-7.7 2.9-8.4 3.4-.8 5.2.9 6 5.7l.7 3.9H107v-5.2c0-7.5-3-13.1-8.4-15.7-5-2.5-17.8-2.8-23.9-.7zM183.7 476.4c-9.1 3.3-9.7 5.7-9.7 36.7 0 21.8.2 24.8 1.9 28.6 3 6.4 6.4 7.8 19.6 7.8 9.2 0 11.6-.3 14.5-2 5.2-3.1 7-7.5 7-17.3V522h-16v4.9c0 2.7-.4 6.2-1 7.6-.9 2.3-1.5 2.6-4.7 2.3l-3.8-.3v-48l3.8-.3c3.2-.3 3.8 0 4.7 2.3.6 1.4 1 4.6 1 7.1v4.4h16v-7.8c0-9.9-1.9-13.9-8-17-3.6-1.8-6-2.2-13-2.2-4.7.1-10.2.7-12.3 1.4zM599.5 476.4c-5.2 2-8.2 5.6-9 10.8-.4 2.4-.5 15.3-.3 28.8.3 27.2.5 28.2 7.1 31.7 4.6 2.6 23.8 2.6 28.4 0 6.4-3.4 6.8-5.3 7.1-33.9.3-23.8.2-26.1-1.7-30.2-2.7-6.3-6.3-7.9-18.1-8.3-6.6-.2-10.7.1-13.5 1.1zm16.6 14.6c.4 1.4.7 11 .7 21.5 0 10.4-.3 20.1-.7 21.5-.5 2-1.4 2.6-4.4 2.8-3.2.3-3.8 0-4.7-2.3-.6-1.4-1-11.3-1-22s.4-20.6 1-22c.9-2.3 1.5-2.6 4.7-2.3 3 .2 3.9.8 4.4 2.8zM129 476.6c0 .3-3.1 16.5-7 35.9-3.8 19.4-7 35.6-7 35.9 0 .3 3.8.6 8.4.6 9.4 0 8.9.4 10.1-8.3l.6-4.7h12.6l.9 6.2.9 6.3 8.8.3c8.1.3 8.8.1 8.4-1.5-.3-1-3.6-17.4-7.3-36.6l-6.8-34.7h-11.3c-6.2 0-11.3.3-11.3.6zm15.3 42.1l.5 4.3h-4.4c-2.4 0-4.4-.4-4.4-.8 0-.5.9-7.3 2-15.2 1.1-7.9 2.1-14.9 2.1-15.4.1-1 2.7 16.1 4.2 27.1zM230.2 512.1l.3 36.4 7.7.3 7.7.3.3-15.8.3-15.8 3.9.2c6.3.4 6.6 1.1 6.6 15 0 6.8.5 13.3 1 14.4.9 1.6 2.2 1.9 8.9 1.9h7.8l-.3-4.8c-.2-2.6-.5-9.5-.8-15.5-.5-12.5-1.5-14.8-7.8-17-2.9-1.1-3.6-1.6-2.1-1.6 1.3-.1 3.7-1.4 5.5-3 3.3-2.9 3.3-3 3.3-11.9 0-10.4-1.4-13.3-8.1-16.7-3.2-1.6-6.6-2-19.2-2.3l-15.2-.4.2 36.3zm23.9-22.1c1.5.9 1.9 2.2 1.9 7 0 6.6-1.2 8-6.9 8H246v-16h3.1c1.7 0 3.9.5 5 1zM295.6 478.2c-1.9 8.7-13.6 68.5-13.6 69.5s2.3 1.3 8.4 1.3h8.4l.6-3.8c1.8-10 1.1-9.2 8.1-9.2h6.3l.7 6.5.7 6.5H332l-.1-2.8c0-1.5-3-17.8-6.7-36.2l-6.8-33.5-11.2-.3c-10.9-.3-11.2-.2-11.6 2zm15.3 41.5c.1 3.2 0 3.3-3.9 3.3-3.1 0-4-.4-4-1.8s3.7-28.3 4.1-30.2c.2-.9 3.7 25.4 3.8 28.7zM342 512.5V549h15l.1-28.3.1-28.2 4.9 26c2.6 14.3 5.1 27 5.4 28.2.5 2.1 1.1 2.3 8.5 2.3 4.4 0 8-.1 8-.3.1-.1 2.5-13 5.5-28.7l5.3-28.5.1 28.7.1 28.8h15v-73h-25.8l-.6 2.7c-.3 1.6-1.9 12.7-3.7 24.8-1.7 12.1-3.3 22.7-3.6 23.5-.3.8-2.1-8.4-3.9-20.5-1.8-12.1-3.5-23.9-3.9-26.3l-.6-4.2H342v36.5zM425 512.5V549h35v-14h-19v-17h18v-14h-18v-13.9l9.3-.3 9.2-.3.3-6.8.3-6.7H425v36.5zM475 512.5V549h15.3l-.5-28.8-.6-28.7 1.8 6c1 3.3 3.5 11.8 5.4 19 2 7.1 5 17.4 6.7 22.7l3 9.8H529v-73.1l-7.7.3-7.8.3.2 28.5.3 28.5-3.6-12.5c-1.9-6.9-5.7-19.7-8.3-28.5l-4.7-16-11.2-.3-11.2-.3v36.6zM539.2 482.7l.3 6.8 6.3.3 6.2.3V549h16v-59h12v-14h-41.1l.3 6.7zM0 641v59h700V582H0v59z"/></svg>